<?xml version="1.0" encoding="UTF-8"?>
<!DOCTYPE svg PUBLIC "-//W3C//DTD SVG 1.1//EN" "http://www.w3.org/Graphics/SVG/1.1/DTD/svg11.dtd">
<!-- Creator: CorelDRAW X8 -->
<svg xmlns="http://www.w3.org/2000/svg" xml:space="preserve" width="29.2095mm" height="29.2095mm" version="1.1" style="shape-rendering:geometricPrecision; text-rendering:geometricPrecision; image-rendering:optimizeQuality; fill-rule:evenodd; clip-rule:evenodd"
viewBox="0 0 153 153"
 xmlns:xlink="http://www.w3.org/1999/xlink">
 <defs>
  <style type="text/css">
   <![CDATA[
    .fil0 {fill:#1CB1D1;fill-rule:nonzero}
   ]]>
  </style>
 </defs>
 <g id="Слой_x0020_1">
  <metadata id="CorelCorpID_0Corel-Layer"/>
  <path class="fil0" d="M76 0c21,0 41,9 54,22 14,14 23,33 23,54 0,21 -9,41 -23,54 -13,14 -33,23 -54,23 -21,0 -40,-9 -54,-23 -13,-13 -22,-33 -22,-54 0,-21 9,-40 22,-54 14,-13 33,-22 54,-22zm53 23c-13,-13 -32,-21 -53,-21 -20,0 -39,8 -53,21 -13,14 -21,33 -21,53 0,21 8,40 21,53 14,14 33,22 53,22 21,0 40,-8 53,-22 14,-13 22,-32 22,-53 0,-20 -8,-39 -22,-53z"/>
  <path class="fil0" d="M44 42l65 0c1,0 2,1 2,1 1,1 1,2 1,3l0 45c0,1 0,2 -1,3 0,0 -1,1 -2,1l-3 0 0 -2 3 0c0,0 1,0 1,0 0,-1 1,-1 1,-2l0 -36 -69 0 0 36c0,1 0,1 1,2 0,0 1,0 1,0l3 0 0 2 -3 0c-1,0 -2,-1 -2,-1 -1,-1 -1,-2 -1,-3l0 -45c0,-1 0,-2 1,-3 0,0 1,-1 2,-1zm29 38c0,0 -1,0 -1,-1 0,0 1,0 1,-1l-1 0c-1,0 -2,0 -2,0l0 0c-1,-1 -1,-1 -1,-2l0 -4c0,0 0,-1 1,-1 0,-1 1,-1 2,-1l9 0c1,0 1,0 2,1 0,0 0,1 0,1l0 4c0,1 0,1 0,2 -1,0 -1,0 -2,0l-2 0c1,1 1,1 1,1 0,1 0,1 0,1 4,0 7,1 10,3 0,0 0,0 1,0 0,-1 0,-1 0,-1l-1 0c-1,-1 -1,-1 -1,-2 -1,0 0,-1 0,-1l1 -3c1,-1 1,-1 2,-1 0,0 1,0 1,0l8 4c0,1 1,1 1,2 0,0 0,1 -1,1l-1 3c0,0 -1,1 -1,1 -1,0 -2,0 -2,0l-2 -1c0,0 0,0 0,0 0,1 0,1 0,1 1,1 3,2 4,3 5,5 9,13 9,21l-2 0c0,-8 -3,-15 -8,-20 -6,-5 -13,-9 -22,-9 -8,0 -15,4 -21,9 -5,5 -8,12 -8,20l-2 0c0,-8 4,-16 9,-21 1,-1 2,-2 4,-3 0,0 0,0 -1,0 0,-1 0,-1 1,-1l-2 1c-1,0 -1,0 -2,0 0,0 -1,0 -1,-1l-2 -3c0,0 0,-1 0,-1 0,-1 0,-1 1,-2l0 0 7 -4c1,0 1,0 2,0 0,0 1,0 1,1l2 3c0,0 0,1 0,1 0,1 0,1 -1,2l-1 0c0,1 0,1 0,1 0,0 0,0 0,0 3,-1 7,-3 11,-3zm27 1l-7 -5c-1,0 -1,0 -1,0 0,0 0,0 0,1l-2 2c0,1 0,1 0,1 0,0 0,0 0,0l8 4c0,0 0,0 0,0 0,0 0,0 1,0l1 -3c0,0 0,0 0,0 0,0 0,0 0,0l0 0zm-40 -5l-7 5c0,0 0,0 0,0 -1,0 -1,0 0,0l1 3c0,0 0,0 1,1 0,0 0,0 0,-1l7 -4c0,0 1,0 1,0 0,0 0,0 0,-1l-2 -2c0,0 0,-1 0,-1 -1,0 -1,0 -1,0zm21 -4l-9 0c-1,0 -1,0 -1,0 0,0 0,0 0,0l0 4c0,0 0,0 0,1l0 0c0,0 0,0 1,0l9 0c0,0 1,0 1,0 0,-1 0,-1 0,-1l0 -4c0,0 0,0 0,0 0,0 -1,0 -1,0zm-3 37c0,0 0,-1 0,-1 0,0 0,0 0,0 -1,0 -1,0 -2,0 -1,0 -2,0 -3,1 0,0 0,1 -1,1l-1 0c0,-1 1,-2 1,-2 1,-1 3,-2 4,-2 1,0 2,0 3,1l9 -9c0,-1 0,-1 1,0 0,0 0,0 0,1l-9 9 0 0c1,0 1,1 1,2l-1 0c-1,0 -1,-1 -1,-1 0,0 0,0 -1,0zm-24 -11l0 0c-2,4 -3,8 -3,12l-1 0c0,-7 3,-13 7,-18 5,-5 12,-8 19,-8 8,0 15,3 20,8 4,5 7,11 7,18l-1 0c0,-4 -1,-8 -3,-11l-4 1c0,1 0,0 -1,0 0,0 0,-1 1,-1l3 -2c-1,-1 -2,-3 -4,-4 -1,-1 -3,-3 -4,-4 -1,0 -1,1 -1,1l-1 3c-1,0 -1,0 -1,0 -1,0 -1,-1 -1,-1l2 -3c0,0 0,0 0,0 -3,-2 -7,-3 -11,-3l0 3c0,1 0,1 -1,1 0,0 0,0 0,-1l0 -3c-4,0 -8,1 -11,3 0,0 0,0 0,0l2 3c0,0 0,1 -1,1 0,0 0,0 -1,0l-1 -3c0,0 -1,-1 -1,-1 -1,1 -3,3 -4,4 -2,1 -3,3 -4,4l3 2c1,0 1,1 1,1 -1,0 -1,1 -1,0l-4 -2zm10 -48c0,0 -1,0 -1,-1 0,0 1,0 1,0l4 0c0,0 1,0 1,0 0,1 -1,1 -1,1l-4 0zm-7 0c-1,0 -1,0 -1,-1 0,0 0,0 1,0l3 0c1,0 1,0 1,0 0,1 0,1 -1,1l-3 0zm-8 0c0,0 0,0 0,-1 0,0 0,0 0,0l4 0c1,0 1,0 1,0 0,1 0,1 -1,1l-4 0zm62 4l0 -8c0,-1 -1,-1 -1,-1 0,-1 -1,-1 -1,-1l-65 0c0,0 -1,0 -1,1 -1,0 -1,0 -1,1l0 8 69 0z"/>
 </g>
</svg>
