<?xml version="1.0" encoding="UTF-8"?>
<!DOCTYPE svg PUBLIC "-//W3C//DTD SVG 1.1//EN" "http://www.w3.org/Graphics/SVG/1.1/DTD/svg11.dtd">
<!-- Creator: CorelDRAW X8 -->
<svg xmlns="http://www.w3.org/2000/svg" xml:space="preserve" width="29.2095mm" height="29.2095mm" version="1.1" style="shape-rendering:geometricPrecision; text-rendering:geometricPrecision; image-rendering:optimizeQuality; fill-rule:evenodd; clip-rule:evenodd"
viewBox="0 0 286 286"
 xmlns:xlink="http://www.w3.org/1999/xlink">
 <defs>
  <style type="text/css">
   <![CDATA[
    .fil0 {fill:#1CB1D1;fill-rule:nonzero}
   ]]>
  </style>
 </defs>
 <g id="Слой_x0020_1">
  <metadata id="CorelCorpID_0Corel-Layer"/>
  <path class="fil0" d="M143 0c39,0 75,16 101,42 26,26 42,61 42,101 0,39 -16,75 -42,101 -26,26 -62,42 -101,42 -40,0 -75,-16 -101,-42 -26,-26 -42,-62 -42,-101 0,-40 16,-75 42,-101 26,-26 61,-42 101,-42zm99 44c-25,-25 -60,-41 -99,-41 -39,0 -74,16 -99,41 -25,25 -41,60 -41,99 0,39 16,74 41,99 25,25 60,41 99,41 39,0 74,-16 99,-41 25,-25 41,-60 41,-99 0,-39 -16,-74 -41,-99z"/>
  <path class="fil0" d="M80 79l126 0c1,0 1,0 1,1l0 23 0 103c0,1 0,1 -1,1l-126 0c-1,0 -1,0 -1,-1l0 -103 0 -23c0,-1 0,-1 1,-1zm96 49c-1,0 -2,-1 -2,-1 0,-1 1,-2 2,-2l12 0c1,0 2,1 2,2 0,0 -1,1 -2,1l-12 0zm7 15c-1,0 -2,-1 -2,-2 0,-1 1,-1 2,-1l13 0c0,0 1,0 1,1 0,1 -1,2 -1,2l-13 0zm0 16c-1,0 -2,0 -2,-1 0,-1 1,-2 2,-2l9 0c1,0 1,1 1,2 0,1 0,1 -1,1l-9 0zm-6 16c-1,0 -1,-1 -1,-2 0,0 0,-1 1,-1l18 0c1,0 1,1 1,1 0,1 0,2 -1,2l-18 0zm-8 15c-1,0 -1,-1 -1,-2 0,-1 0,-1 1,-1l18 0c1,0 2,0 2,1 0,1 -1,2 -2,2l-18 0zm-54 0c-1,0 -2,-1 -2,-2 0,-1 1,-1 2,-1l10 0c0,0 1,0 1,1 0,1 -1,2 -1,2l-10 0zm-18 0c-1,0 -1,-1 -1,-2 0,-1 0,-1 1,-1l4 0c1,0 2,0 2,1 0,1 -1,2 -2,2l-4 0zm0 -17c-1,0 -1,-1 -1,-2 0,0 0,-1 1,-1l13 0c1,0 2,1 2,1 0,1 -1,2 -2,2l-13 0zm0 -14c-1,0 -1,-1 -1,-1 0,-1 0,-2 1,-2l4 0c1,0 2,1 2,2 0,0 -1,1 -2,1l-4 0zm0 -16c-1,0 -1,-1 -1,-2 0,-1 0,-1 1,-1l8 0c1,0 2,0 2,1 0,1 -1,2 -2,2l-8 0zm0 -16c-1,0 -1,0 -1,-1 0,-1 0,-2 1,-2l8 0c1,0 2,1 2,2 0,1 -1,1 -2,1l-8 0zm42 15c1,0 2,0 2,0 1,1 0,2 0,2 -5,3 -7,7 -7,11 0,2 1,4 3,6 2,1 4,2 6,2 3,0 7,-2 10,-9 1,0 1,-1 2,0 1,0 1,1 1,2 -4,7 -9,10 -13,10 -3,0 -6,-1 -8,-3 -2,-2 -3,-5 -4,-8 0,-5 2,-10 8,-13zm-17 3l-8 -10c-1,-1 -1,-2 0,-3l6 -6c1,0 2,0 2,0l10 8 3 -2 2 -12c0,0 0,-1 1,-1l9 0c1,0 1,1 2,1l2 13 3 2 8 -9c1,0 2,0 2,0l7 6c0,0 0,1 0,2l-7 12 2 3 11 2c1,0 1,0 1,1l0 6c0,1 0,1 -1,1l-12 3 -2 3 6 10c1,0 1,1 0,1l-4 6c0,0 -1,0 -2,0l-11 -7 -2 1 -2 13c0,1 -1,1 -2,1l-6 1c-1,0 -1,-1 -2,-2l-1 -12 -5 -1 -11 7c-1,0 -1,0 -2,0l-5 -5c-1,-1 -1,-2 0,-2l8 -11 -2 -4 -13 -3c-1,0 -1,0 -1,-1l0 -6c0,-1 1,-2 1,-2l13 0 2 -4zm-5 -11l8 10c1,0 1,1 1,1l-4 6c0,0 -1,0 -1,0l-12 1 0 4 13 2c0,0 1,0 1,1l2 6c0,1 0,1 0,2l-8 10 3 3 11 -7c0,0 1,0 1,0l6 2c1,0 1,0 1,1l2 12 4 -1 2 -12c0,0 0,0 1,-1l3 -2c1,-1 1,-1 2,0l11 7 2 -4 -6 -9c0,0 0,-1 0,-1l3 -5c0,-1 0,-1 1,-1l11 -2 0 -4 -10 -1c0,0 -1,-1 -1,-1l-3 -5c0,0 0,-1 0,-1l7 -12 -5 -4 -8 9c-1,0 -1,0 -2,0l-4 -2c-1,0 -1,-1 -1,-1l-2 -13 -7 0 -1 11c0,1 -1,1 -1,1l-5 3c0,0 -1,0 -1,-1l-9 -7 -5 5zm1 -41c-1,0 -1,0 -1,-1 0,-1 0,-2 1,-2l8 0c1,0 2,1 2,2 0,1 -1,1 -2,1l-8 0zm-14 0c0,0 -1,0 -1,-1 0,-1 1,-2 1,-2l9 0c1,0 1,1 1,2 0,1 0,1 -1,1l-9 0zm-14 0c-1,0 -2,0 -2,-1 0,-1 1,-2 2,-2l8 0c1,0 2,1 2,2 0,1 -1,1 -2,1l-8 0zm114 12l-122 0 0 99 122 0 0 -99zm-122 -3l122 0 0 -20 -122 0 0 20z"/>
 </g>
</svg>
