<?xml version="1.0" encoding="UTF-8"?>
<!DOCTYPE svg PUBLIC "-//W3C//DTD SVG 1.1//EN" "http://www.w3.org/Graphics/SVG/1.1/DTD/svg11.dtd">
<!-- Creator: CorelDRAW X8 -->
<svg xmlns="http://www.w3.org/2000/svg" xml:space="preserve" width="29.2095mm" height="29.2095mm" version="1.1" style="shape-rendering:geometricPrecision; text-rendering:geometricPrecision; image-rendering:optimizeQuality; fill-rule:evenodd; clip-rule:evenodd"
viewBox="0 0 153 153"
 xmlns:xlink="http://www.w3.org/1999/xlink">
 <defs>
  <style type="text/css">
   <![CDATA[
    .fil1 {fill:#1CB1D1}
    .fil0 {fill:#1CB1D1;fill-rule:nonzero}
   ]]>
  </style>
 </defs>
 <g id="Слой_x0020_1">
  <metadata id="CorelCorpID_0Corel-Layer"/>
  <path class="fil0" d="M90 44c6,0 12,2 16,6 4,4 6,10 6,16 0,6 -2,11 -6,15 -4,4 -10,7 -16,7 -6,0 -11,-3 -15,-7 -4,-4 -7,-9 -7,-15 0,-6 3,-12 7,-16 4,-4 9,-6 15,-6zm15 7c-4,-4 -9,-6 -15,-6 -5,0 -11,2 -14,6 -4,4 -6,9 -6,15 0,5 2,10 6,14 3,4 9,6 14,6 6,0 11,-2 15,-6 3,-4 6,-9 6,-14 0,-6 -3,-11 -6,-15z"/>
  <path class="fil0" d="M89 53c-1,0 -1,-1 -1,-1 0,-1 0,-1 1,-1 4,1 8,3 10,5 3,3 4,7 4,11 0,0 0,1 0,1 -1,0 -1,0 -1,-1 0,-4 -2,-7 -4,-9 -2,-3 -5,-4 -9,-5z"/>
  <path class="fil0" d="M53 62l-2 0 -1 -3 -5 0 -1 3 -3 0 5 -12 3 0 4 12zm-4 -5l-2 -4 -1 4 3 0z"/>
  <path class="fil0" d="M79 88c0,0 0,0 0,0 0,1 0,1 0,1l-38 0c-1,0 -1,0 -1,-1 0,0 0,0 1,0l38 0z"/>
  <path class="fil0" d="M70 80c0,0 1,1 1,1 0,1 -1,1 -1,1l-29 0c-1,0 -1,0 -1,-1 0,0 0,-1 1,-1l29 0z"/>
  <path class="fil0" d="M66 73c0,0 0,1 0,1 0,0 0,1 0,1l-25 0c-1,0 -1,-1 -1,-1 0,0 0,-1 1,-1l25 0z"/>
  <path class="fil0" d="M66 66c0,0 0,0 0,1 0,0 0,1 0,1l-25 0c-1,0 -1,-1 -1,-1 0,-1 0,-1 1,-1l25 0z"/>
  <path class="fil0" d="M66 59c0,0 1,0 1,1 0,0 -1,0 -1,0l-10 0c0,0 0,0 0,0 0,-1 0,-1 0,-1l10 0z"/>
  <path class="fil0" d="M68 52c0,0 0,0 0,0 0,1 0,1 0,1l-12 0c0,0 0,0 0,-1 0,0 0,0 0,0l12 0z"/>
  <rect class="fil1" x="88" y="87" width="3.73752" height="4.18851"/>
  <path class="fil0" d="M85 90l10 0c1,0 1,0 1,1l0 15 -2 0 0 -14 -8 0 0 28 8 0 0 -6 2 0 0 6c0,1 0,1 -1,1l-10 0c0,0 -1,0 -1,-1l0 -29c0,-1 1,-1 1,-1zm9 22l0 -4 2 0 0 4 -2 0z"/>
  <path class="fil0" d="M85 99c0,0 -1,-1 -1,-1 0,-1 1,-1 1,-1l10 0c1,0 1,0 1,1 0,0 0,1 -1,1l-10 0z"/>
  <path class="fil0" d="M76 0c21,0 40,9 54,22 14,14 23,33 23,54 0,21 -9,40 -23,54 -14,14 -33,23 -54,23 -21,0 -40,-9 -54,-23 -13,-14 -22,-33 -22,-54 0,-21 9,-40 22,-54 14,-13 33,-22 54,-22zm53 23c-13,-13 -32,-21 -53,-21 -20,0 -39,8 -53,21 -13,14 -21,33 -21,53 0,21 8,40 21,53 14,14 33,22 53,22 21,0 40,-8 53,-22 14,-13 22,-32 22,-53 0,-20 -8,-39 -22,-53z"/>
 </g>
</svg>
