<?xml version="1.0" encoding="UTF-8"?>
<!DOCTYPE svg PUBLIC "-//W3C//DTD SVG 1.1//EN" "http://www.w3.org/Graphics/SVG/1.1/DTD/svg11.dtd">
<!-- Creator: CorelDRAW X8 -->
<svg xmlns="http://www.w3.org/2000/svg" xml:space="preserve" width="29.2095mm" height="29.2095mm" version="1.1" style="shape-rendering:geometricPrecision; text-rendering:geometricPrecision; image-rendering:optimizeQuality; fill-rule:evenodd; clip-rule:evenodd"
viewBox="0 0 286 286"
 xmlns:xlink="http://www.w3.org/1999/xlink">
 <defs>
  <style type="text/css">
   <![CDATA[
    .fil0 {fill:#1CB1D1;fill-rule:nonzero}
   ]]>
  </style>
 </defs>
 <g id="Слой_x0020_1">
  <metadata id="CorelCorpID_0Corel-Layer"/>
  <path class="fil0" d="M143 0c39,0 75,16 101,42 26,26 42,61 42,101 0,39 -16,75 -42,101 -26,26 -62,42 -101,42 -40,0 -75,-16 -101,-42 -26,-26 -42,-62 -42,-101 0,-40 16,-75 42,-101 26,-26 61,-42 101,-42zm99 44c-25,-25 -60,-41 -99,-41 -39,0 -74,16 -99,41 -25,25 -41,60 -41,99 0,39 16,74 41,99 25,25 60,41 99,41 39,0 74,-16 99,-41 25,-25 41,-60 41,-99 0,-39 -16,-74 -41,-99z"/>
  <path class="fil0" d="M82 205c0,0 -1,1 -1,1 -1,0 -2,-1 -2,-1l0 -104 0 0 0 -23c0,-1 1,-1 2,-1l124 0c1,0 2,0 2,1l0 23 0 0 0 105c0,1 -1,1 -2,1 0,0 -1,0 -1,-1l0 -104 -122 0 0 103zm94 -14c-2,1 0,3 2,2 1,-1 1,-1 2,-2 1,-2 -1,-4 -2,-2 -1,1 -2,1 -2,2zm7 -9c-1,2 1,3 2,1 1,0 1,-1 2,-2 1,-2 -2,-3 -3,-2 0,1 -1,2 -1,3zm4 -10c0,1 2,2 3,0 0,-1 1,-2 1,-3 0,-1 -3,-2 -3,0 0,1 0,2 -1,3zm2 -12c0,2 3,2 3,1 0,-2 0,-3 0,-4 0,-1 -3,-1 -3,1 0,0 0,1 0,2zm-1 -11c1,2 4,1 3,-1 0,0 0,-2 -1,-2 0,-3 -3,-1 -2,0 0,1 0,2 0,3zm-3 -11c0,2 3,1 2,-1 0,-1 -1,-2 -1,-3 -1,-1 -4,0 -3,2 1,1 1,1 2,2zm-6 -9c1,1 3,-1 2,-2 -1,-1 -2,-2 -2,-2 -2,-2 -4,0 -2,2 0,0 1,1 2,2zm-9 -8c2,1 4,-1 2,-2 -1,-1 -2,-2 -3,-2 -1,-1 -3,1 -1,2 1,1 1,1 2,2zm-10 -5c2,0 3,-2 1,-3 -1,-1 -2,-1 -2,-1 -2,-1 -3,2 -1,3 1,0 1,0 2,1zm-11 -3c2,0 3,-3 1,-3 -1,0 -2,0 -3,-1 -2,0 -3,3 -1,3 1,0 2,1 3,1zm-11 0c2,-1 2,-4 0,-3 -1,0 -2,0 -3,0 -2,0 -2,3 0,3 1,0 2,0 3,0zm-11 2c2,0 1,-3 -1,-3 -1,1 -2,1 -3,2 -2,0 -1,3 1,2 1,0 2,0 3,-1zm-10 6c2,-2 0,-4 -2,-3 -1,1 -1,1 -2,2 -2,1 0,3 2,2 0,0 1,-1 2,-1zm-9 7c2,-1 -1,-3 -2,-2 0,1 -1,2 -2,3 -1,1 1,3 3,1 0,0 1,-1 1,-2zm-6 10c1,-2 -2,-3 -3,-2 0,1 0,2 -1,3 -1,2 2,3 3,1 0,-1 1,-2 1,-2zm-4 10c1,-2 -2,-2 -3,0 0,1 0,2 0,3 0,2 2,2 3,0 0,-1 0,-2 0,-3zm-1 12c0,-2 -3,-2 -3,0 0,1 0,2 0,3 1,2 4,1 3,-1 0,-1 0,-2 0,-2zm2 11c-1,-2 -4,-1 -3,1 0,1 1,1 1,2 1,2 3,1 3,-1 -1,0 -1,-1 -1,-2zm4 10c-1,-2 -3,0 -2,2 0,1 1,1 1,2 1,2 4,0 3,-1 -1,-1 -1,-2 -2,-3zm7 9c-1,-1 -3,1 -2,2 1,1 1,2 2,2 2,2 3,0 2,-2 -1,0 -1,-1 -2,-2zm24 0c0,0 1,-1 1,-1 1,0 2,1 2,1l0 14 5 -5c1,-1 2,-1 3,0l5 5 0 -14c0,-1 0,-2 1,-2 1,0 1,1 1,2l0 17c0,1 0,1 0,1 -1,1 -1,1 -2,0l-6 -6 -8 7c0,0 0,0 -1,0 0,0 -1,0 -1,-1l0 -18zm10 -64l8 21 23 2c1,0 1,0 1,1 0,1 0,1 0,1l-18 15 6 22c0,1 -1,2 -1,2 -1,0 -1,0 -1,0l-20 -12 -19 12c-1,0 -2,0 -2,-1 0,0 0,-1 0,-1l5 -22 -17 -15c-1,0 -1,-1 0,-2 0,0 0,0 1,0l22 -2 9 -21c0,-1 1,-1 2,-1 0,0 1,1 1,1zm6 23l-8 -18 -7 18c0,1 -1,1 -1,1l-20 1 15 13c0,1 1,1 0,2l-4 19 17 -10c0,-1 1,-1 1,0l17 10 -5 -19c0,-1 0,-1 1,-2l15 -13 -20 -1c0,0 -1,0 -1,-1zm-30 -58c0,0 -1,-1 -1,-1 0,-1 1,-2 1,-2l9 0c1,0 1,1 1,2 0,0 0,1 -1,1l-9 0zm-13 0c-1,0 -2,-1 -2,-1 0,-1 1,-2 2,-2l8 0c1,0 2,1 2,2 0,0 -1,1 -2,1l-8 0zm-14 0c-1,0 -2,-1 -2,-1 0,-1 1,-2 2,-2l8 0c1,0 2,1 2,2 0,0 -1,1 -2,1l-8 0zm111 9l0 -21 -122 0 0 21 122 0z"/>
 </g>
</svg>
