<svg xmlns="http://www.w3.org/2000/svg" xmlns:xlink="http://www.w3.org/1999/xlink" width="23" height="34" viewBox="0 0 23 34"><defs><path id="a" d="M-65-34h1440v398H-65z"/></defs><clipPath id="b"><use xlink:href="#a" overflow="visible"/></clipPath><g clip-path="url(#b)"><defs><path id="c" d="M.18 22.9c0 2.898 1.126 5.623 3.176 7.684a10.892 10.892 0 0 0 7.775 3.229 10.89 10.89 0 0 0 7.775-3.228 10.823 10.823 0 0 0 3.176-7.752v-.028a10.838 10.838 0 0 0-3.176-7.752 10.893 10.893 0 0 0-7.774-3.229c-.676 0-1.224.546-1.224 1.22s.548 1.22 1.224 1.22c2.284 0 4.428.89 6.036 2.507a8.455 8.455 0 0 1 2.466 6.037v.091a8.4 8.4 0 0 1-2.466 5.966 8.456 8.456 0 0 1-6.036 2.506 8.457 8.457 0 0 1-6.037-2.507 8.397 8.397 0 0 1-2.466-5.966c0-.024-.03-11.081-.02-11.858a8.398 8.398 0 0 1 1.119-4.074l.035-.061.002-.004.003-.002a.04.04 0 0 0 .005-.009c1.105-1.994 2.938-3.396 5.133-3.987a8.43 8.43 0 0 1 6.472.869 8.537 8.537 0 0 1 3.983 5.209 8.47 8.47 0 0 1-.581 5.944 45.86 45.86 0 0 1 1.642 2.021 1.2 1.2 0 0 0 .188-.244 10.848 10.848 0 0 0 1.11-8.333 10.997 10.997 0 0 0-5.13-6.71A10.865 10.865 0 0 0 8.254.54a10.71 10.71 0 0 0-6.565 5.056l-.04.07-.04.069A10.852 10.852 0 0 0 .261 9.697C.261 11.111.18 22.87.18 22.9"/></defs><clipPath id="d"><use xlink:href="#c" overflow="visible"/></clipPath><path clip-path="url(#d)" fill="#333743" d="M-4.82-4.837h31.919v43.65H-4.82z"/></g></svg>