<?xml version="1.0" encoding="UTF-8"?>
<!DOCTYPE svg PUBLIC "-//W3C//DTD SVG 1.1//EN" "http://www.w3.org/Graphics/SVG/1.1/DTD/svg11.dtd">
<!-- Creator: CorelDRAW X8 -->
<svg xmlns="http://www.w3.org/2000/svg" xml:space="preserve" width="65.1342mm" height="58.6319mm" version="1.1" style="shape-rendering:geometricPrecision; text-rendering:geometricPrecision; image-rendering:optimizeQuality; fill-rule:evenodd; clip-rule:evenodd"
viewBox="0 0 1904 1714"
 xmlns:xlink="http://www.w3.org/1999/xlink">
 <defs>
  <style type="text/css">
   <![CDATA[
    .str2 {stroke:#FEFEFE;stroke-width:11.6944;stroke-linecap:round;stroke-linejoin:round}
    .str0 {stroke:#5B5B5B;stroke-width:11.6944;stroke-linecap:round;stroke-linejoin:round}
    .str1 {stroke:#5B5B5B;stroke-width:11.6944;stroke-linecap:round;stroke-linejoin:round;stroke-dasharray:11.694414 35.083241}
    .str3 {stroke:#5B5B5B;stroke-width:11.6944;stroke-linecap:round;stroke-linejoin:round;stroke-dasharray:11.694414 58.472068}
    .fil3 {fill:none}
    .fil8 {fill:#FEFEFE}
    .fil10 {fill:#D9DADA}
    .fil14 {fill:#5B5B5B}
    .fil11 {fill:#40CAD5}
    .fil16 {fill:#48CDD6}
    .fil1 {fill:#929397}
    .fil7 {fill:#D8D9DB}
    .fil0 {fill:#DCDDDF}
    .fil15 {fill:#E65E38}
    .fil12 {fill:#E85C38}
    .fil9 {fill:#F2F3F5}
    .fil5 {fill:#F5A630}
    .fil4 {fill:#F9D07E}
    .fil13 {fill:#FDA635}
    .fil2 {fill:white}
    .fil6 {fill:#5B5B5B;fill-rule:nonzero}
   ]]>
  </style>
 </defs>
 <g id="Слой_x0020_1">
  <metadata id="CorelCorpID_0Corel-Layer"/>
  <g id="_2662849381392">
   <rect class="fil0" x="733" y="1512" width="362.854" height="84.84"/>
   <rect class="fil1 str0" x="299" y="634" width="1227" height="698"/>
   <rect class="fil2" x="355" y="690" width="1116" height="584"/>
   <rect class="fil2 str0" x="299" y="1331" width="1227" height="181"/>
   <line class="fil3 str0" x1="373" y1="1708" x2="1404" y2= "1708" />
   <line class="fil3 str0" x1="733" y1="1512" x2="733" y2= "1708" />
   <line class="fil3 str0" x1="1104" y1="1512" x2="1104" y2= "1708" />
  </g>
  <g id="_2662849383056">
   <g>
    <rect class="fil4" x="390" y="1134" width="1044.83" height="64.7023"/>
    <rect class="fil5" x="390" y="1199" width="1044.83" height="78.0514"/>
   </g>
   <path class="fil6" d="M501 1136l0 -2 12 0 0 26 -12 0 0 -24zm-83 3l0 -5 12 0 0 55 -12 0 0 -50zm42 -3l0 -2 12 0 0 26 -12 0 0 -24z"/>
   <path class="fil6" d="M1326 1136l0 -2 -12 0 0 26 12 0 0 -24zm83 3l0 -5 -12 0 0 55 12 0 0 -50zm-42 -3l0 -2 -12 0 0 26 12 0 0 -24z"/>
  </g>
  <rect class="fil7 str0" x="518" y="360" width="788.847" height="80.6447"/>
  <rect class="fil8" x="580" y="395" width="19.8279" height="19.8279"/>
  <rect class="fil8" x="620" y="395" width="19.8279" height="19.8279"/>
  <rect class="fil8" x="651" y="395" width="19.8279" height="19.8279"/>
  <rect class="fil8" x="731" y="395" width="474.553" height="19.8279"/>
  <rect class="fil8 str0" x="518" y="441" width="789" height="834"/>
  <rect class="fil9" x="666" y="1140" width="494" height="119"/>
  <rect class="fil10" x="757" y="943" width="306.429" height="13.4047"/>
  <rect class="fil11" x="657" y="522" width="501" height="192"/>
  <rect class="fil5" x="657" y="724" width="246" height="162"/>
  <rect class="fil12" x="912" y="724" width="246" height="162"/>
  <g id="_2662849387504">
   <path class="fil8 str0" d="M843 430c46,0 91,0 137,0 15,34 10,68 -11,104 -37,0 -74,0 -110,0 -21,-33 -26,-67 -16,-104z"/>
   <line class="fil3 str0" x1="838" y1="460" x2="988" y2= "460" />
   <line class="fil3 str0" x1="840" y1="482" x2="988" y2= "482" />
   <line class="fil3 str0" x1="844" y1="504" x2="983" y2= "504" />
   <path class="fil8 str0" d="M890 534c0,11 0,22 0,32 16,15 32,15 49,0l0 -32 -49 0z"/>
   <path class="fil13 str0" d="M913 125c77,0 139,62 139,139 0,52 -29,97 -72,121l0 45 -133 0 0 -45c-43,-24 -72,-69 -72,-121 0,-77 62,-139 138,-139z"/>
   <polygon class="fil14" points="944,162 854,292 922,292 883,375 973,262 902,262 "/>
   <line class="fil3 str0" x1="918" y1="84" x2="918" y2= "109" />
   <line class="fil3 str0" x1="1006" y1="108" x2="995" y2= "130" />
   <line class="fil3 str0" x1="1075" y1="172" x2="1055" y2= "186" />
   <line class="fil3 str0" x1="1094" y1="265" x2="1069" y2= "267" />
   <line class="fil3 str0" x1="1069" y1="356" x2="1047" y2= "344" />
   <line class="fil3 str0" x1="1014" y1="418" x2="999" y2= "399" />
   <path class="fil3 str0" d="M970 63c-1,4 -12,49 -12,49"/>
   <path class="fil3 str0" d="M1066 116c-3,3 -34,38 -34,38"/>
   <path class="fil3 str0" d="M1116 208c-4,2 -48,18 -48,18"/>
   <path class="fil3 str0" d="M1118 315c-4,-1 -50,-10 -50,-10"/>
   <path class="fil3 str0" d="M1062 412c-4,-3 -39,-34 -39,-34"/>
   <line class="fil3 str0" x1="820" y1="108" x2="831" y2= "130" />
   <line class="fil3 str0" x1="750" y1="172" x2="771" y2= "186" />
   <line class="fil3 str0" x1="732" y1="265" x2="756" y2= "267" />
   <line class="fil3 str0" x1="757" y1="356" x2="778" y2= "344" />
   <line class="fil3 str0" x1="812" y1="418" x2="826" y2= "399" />
   <path class="fil3 str0" d="M855 63c1,4 12,49 12,49"/>
   <path class="fil3 str0" d="M759 116c3,3 34,38 34,38"/>
   <path class="fil3 str0" d="M710 208c4,2 48,18 48,18"/>
   <path class="fil3 str0" d="M707 315c5,-1 50,-10 50,-10"/>
   <path class="fil3 str0" d="M764 412c3,-3 38,-34 38,-34"/>
  </g>
  <g id="_2662849395408">
   <path class="fil3 str0" d="M737 6l0 44m22 -22l-44 0"/>
   <path class="fil3 str0" d="M226 1174l0 43m22 -21l-44 0"/>
   <polygon class="fil3 str0" points="585,78 585,154 639,116 "/>
   <circle class="fil3 str0" cx="494" cy="261" r="22"/>
   <path class="fil3 str0" d="M251 271l0 43m22 -22l-43 0"/>
   <line class="fil3 str0" x1="127" y1="170" x2="407" y2= "170" />
   <line class="fil3 str0" x1="432" y1="170" x2="458" y2= "170" />
   <line class="fil3 str0" x1="478" y1="170" x2="504" y2= "170" />
   <polygon class="fil3 str0" points="6,472 6,526 44,499 "/>
   <polygon class="fil3 str0" points="91,451 91,490 63,470 "/>
   <polygon class="fil3 str0" points="189,872 189,922 154,897 "/>
   <circle class="fil3 str0" cx="60" cy="728" r="25"/>
   <circle class="fil3 str0" cx="147" cy="728" r="25"/>
   <circle class="fil3 str0" cx="230" cy="728" r="25"/>
   <circle class="fil3 str0" cx="61" cy="1192" r="18"/>
   <line class="fil3 str0" x1="45" y1="1050" x2="196" y2= "1050" />
   <polygon class="fil15" points="148,377 488,377 488,615 435,615 435,703 347,615 148,615 "/>
   <line class="fil3 str1" x1="117" y1="999" x2="296" y2= "999" />
   <polyline class="fil3 str2" points="266,462 234,494 265,526 "/>
   <polyline class="fil3 str2" points="375,462 408,494 376,526 "/>
   <line class="fil3 str2" x1="344" y1="441" x2="290" y2= "545" />
  </g>
  <g id="_2662849403568">
   <line class="fil3 str0" x1="1145" y1="115" x2="1404" y2= "115" />
   <path class="fil3 str0" d="M1433 115l32 0m-16 16l0 -33"/>
   <path class="fil3 str0" d="M1385 278l33 0m-16 17l0 -33"/>
   <circle class="fil3 str0" cx="1230" cy="249" r="17"/>
   <polygon class="fil3 str0" points="1536,258 1536,333 1584,293 "/>
   <polygon class="fil3 str0" points="1638,230 1638,279 1606,253 "/>
   <path class="fil3 str0" d="M1842 543l33 0m-17 17l0 -33"/>
   <circle class="fil3 str0" cx="1773" cy="685" r="17"/>
   <line class="fil3 str0" x1="1559" y1="781" x2="1800" y2= "781" />
   <line class="fil3 str0" x1="1823" y1="781" x2="1850" y2= "781" />
   <line class="fil3 str0" x1="1872" y1="781" x2="1898" y2= "781" />
   <circle class="fil3 str1" cx="1685" cy="977" r="100"/>
   <line class="fil3 str0" x1="1559" y1="843" x2="1696" y2= "843" />
   <path class="fil3 str0" d="M1668 977l33 0m-16 16l0 -33"/>
   <path class="fil3 str0" d="M1638 1195l32 0m-16 17l0 -33"/>
   <path class="fil3 str0" d="M1744 1258l33 0m-17 16l0 -33"/>
   <circle class="fil3 str0" cx="1771" cy="1146" r="17"/>
   <circle class="fil16" cx="1529" cy="575" r="165"/>
   <circle class="fil3 str3" cx="1529" cy="575" r="89"/>
   <circle class="fil8 str0" cx="1529" cy="575" r="47"/>
  </g>
 </g>
</svg>
