<svg xmlns="http://www.w3.org/2000/svg" width="207.229" height="193.693" viewBox="0 0 1256 1174" shape-rendering="geometricPrecision" text-rendering="geometricPrecision" image-rendering="optimizeQuality" fill-rule="evenodd" clip-rule="evenodd"><defs><style>.str0,.str1{stroke:#5b5b5b;stroke-width:9.16653;stroke-linecap:round;stroke-linejoin:round}.str1{stroke-dasharray:9.166534 27.499601}.fil2{fill:none}.fil5{fill:#fefefe}.fil8{fill:#9d9e9e}.fil12{fill:#38c6d2}.fil0{fill:#3dc7d1}.fil4{fill:#626368}.fil7{fill:#aa4227}.fil10{fill:#e25a34}.fil6{fill:#e95635}.fil14{fill:#f2b751}.fil9{fill:#f3a22d}.fil13{fill:#f45a24}.fil11{fill:#f8af46}.fil3{fill:#f8b854}.fil1{fill:#f99c23}</style></defs><g id="Слой_x0020_1"><g id="_1639760004528"><circle class="fil0" cx="638" cy="350" r="245"/><path class="fil1" d="M606 528h64.074v127.016H606z"/><path class="fil2 str0" d="M788 230h122c9 104-58 143-136 173M492 230H370c-9 104 58 143 136 173m8 52c-27 8-48 4-59-25m311 25c27 8 48 4 59-25"/><path class="fil3" d="M487 210h302c-5 70-11 141-16 211-14 164-237 167-267 0-6-70-13-141-19-211z"/><path class="fil2 str0" d="M40 1170h1209"/><path class="fil4" d="M522 651h234v120H522z"/><path class="fil5 str0" d="M777 893c11-31 26-67 43-93 14-21 11-16 10-41-1-30-1-61-2-91 1-23-27-17-25 0v61c0 26 4 23-14 41-13 13-26 25-39 38h-16c12-19 24-37 36-56 13-17-5-31-18-19-23 18-41 38-55 60-11 16-8 16-8 34v60c0 19 88 6 88 6z"/><path class="fil6" d="M673 887h120v283H673z"/><path class="fil7" d="M673 887h50.196v283.267H673z"/><path class="fil5 str0" d="M509 893c-11-31-25-67-43-93-13-21-10-16-10-41 1-30 1-61 2-91 0-23 27-17 25 0v61c0 26-4 23 14 41 13 13 26 25 39 38h16c-12-19-24-37-36-56-13-17 5-31 19-19 23 18 40 38 54 60 11 16 9 16 9 34v60c0 19-89 6-89 6z"/><path class="fil6" d="M494 887h120v283H494z"/><path class="fil7" d="M563 887h50.196v283.267H563z"/><path class="fil5" d="M578 668h120.194v64.97H578z"/><path class="fil8" d="M607 692h62.371v13.97H607z"/><path class="fil2 str0" d="M597 572h83m-83 18h83m-83 30h83m-83 18h83M638 5v40m119-19l-14 37m117 22l-26 31m104 62l-35 20m76 95l-40 7m39 113l-40-8m-2 119l-34-20m-42 111l-26-31M638 25v20m60-15l-3 20m107 19l-10 17m95 55l-15 13m73 88l-19 7m37 104h-20m0 109l-18-7m-38 104l-15-13m-75 87l-9-17M519 26l14 37M416 85l26 31m-104 62l35 20m-76 95l40 7m-39 113l39-8m2 119l35-20m42 111l26-31M577 30l4 20M474 69l10 17m-96 55l16 13m-73 88l19 7m-38 104h20m0 109l19-7m38 104l15-13m74 87l10-17"/><path class="fil9" d="M467 191h338.318v18.924H467z"/><path class="fil10" d="M525 191h63v157l-32-14-31 14z"/><path class="fil2 str0" d="M1252 948h-222m-17 0h-18m-13 0h-18m-64 17v-31m-16 16h32m36 130v-31m-16 16h31m141-17v-44l-26 23zm59-374v-44l26 23zm-7 109v-31m-16 15h31m-85 0H923m65-115v-32m-16 16h31"/><path class="fil11" d="M1105 568h-101l53-82z"/><path class="fil2 str0" d="M1136 539h-101l53-82zm-722 571v-45l-26 24zm-29-227v-31m-16 15h32M130 990h222m17 0h18m13 0h18m-224 73v-44l26 23zM97 675h222m17 0h18m13 0h19m-104 68v-31m-16 16h32m-86 0H45m189 211v-31m-16 15h31"/><circle class="fil12" cx="1031" cy="845" r="60"/><path class="fil2 str0" d="M1007 870v-27m-14 13h27"/><circle class="fil2 str1" cx="1007" cy="858" r="60"/><circle class="fil13" cx="160" cy="580" r="37"/><circle class="fil2 str1" cx="180" cy="550" r="41"/><path class="fil14" d="M55 769h141v141H55z"/><path class="fil2 str1" d="M5 795h141v141H5z"/></g></g></svg>