<svg xmlns="http://www.w3.org/2000/svg" width="218.648" height="208.038" viewBox="0 0 847 806" shape-rendering="geometricPrecision" text-rendering="geometricPrecision" image-rendering="optimizeQuality" fill-rule="evenodd" clip-rule="evenodd"><defs><style>.str0{stroke:#5b5b5b;stroke-width:5.85382;stroke-linecap:round;stroke-linejoin:round}.fil1{fill:none}.fil3{fill:#fefefe}.fil4{fill:#5b5b5b}.fil8{fill:#30c1d2}.fil0{fill:#3dc6d8}.fil5{fill:#e35b35}.fil6{fill:#eb5636}.fil2{fill:#f5a42e}.fil7{fill:#fefefe;fill-rule:nonzero}</style></defs><g id="Слой_x0020_1"><g id="_1639755757216"><path class="fil0" d="M359 570h-63V261c5-24 15-41 31-59 17 17 28 36 32 61v307zm208 0h-63V261c5-24 15-41 32-59 16 17 27 36 31 61v307z"/><path class="fil1 str0" d="M3 803h841M402 546v35m62-35v35m-44-24h28m-28 11h28m-58 13h86m44 3h28m-28 11h28m-49 12h70m-257-23h28m-28 11h28m-49 12h70m273 68c0-12 6-22 21-27m68 81c37 5 62 24 69 66m-217-94c6-16 17-27 35-28-21-56 34-71 58-37 83-6 106 34 90 102m-201-45c18 2 25 11 21 28m82-25c4-9 12-14 23-12 13-24 43-21 51 4m-188 81h28c14-42 77-45 95 0m-268-17c-34-42 37-70 48-20 6 1 13 3 20 4 18-45 79-4 39 32m-155 9c3-13 12-21 27-26M31 794c-1-24 10-37 37-38-45-22-36-107 32-99 3-20 19-29 49-28-11-66 101-64 62 11 37-15 96 18 69 65 16-28 66-26 63 28 7-9 14-17 22-25m-247-25c15-21 33-22 54-5 13 2 21 8 25 17m-47 69c13-32 60-45 82-4 16-3 29 3 36 20h40M22 586c5 0 10 4 10 9s-5 10-10 10-9-5-9-10 4-9 9-9zm542 53c8 0 15 7 15 15s-7 15-15 15-15-7-15-15 7-15 15-15zm229 6c9 0 17 8 17 17s-8 17-17 17-17-8-17-17 8-17 17-17zm-98-72c14 0 25 11 25 24 0 14-11 24-25 24-13 0-24-10-24-24 0-13 11-24 24-24zM68 602c13 0 24 11 24 24s-11 24-24 24-24-11-24-24 11-24 24-24zm189-14c9 0 16 7 16 16s-7 16-16 16-16-7-16-16 7-16 16-16z"/><path class="fil2" d="M503 479H363V105c12-29 33-51 71-72 36 20 60 44 69 74v372z"/><path class="fil3 str0" d="M481 546h-95V238c8-24 22-42 47-60 25 17 42 37 48 62v306z"/><path class="fil4 str0" d="M402 207c8-10 18-19 31-29 13 9 24 19 32 29h-63z"/><path class="fil1 str0" d="M403 292c9-36 52-36 60 0"/><path class="fil5 str0" d="M481 526h67v-64c0-9-4-18-12-28-18-21-37-42-55-63v155zm-96 0h-67v-64c0-9 4-18 12-28 18-21 37-42 55-63v155z"/><circle class="fil1 str0" cx="173" cy="510" r="11"/><circle class="fil1 str0" cx="96" cy="365" r="8"/><path class="fil1 str0" d="M43 466h96m13 0h26m39-174v20m10-10h-20m48 125v20m10-10h-20"/><rect class="fil6 str0" x="147" y="375" width="73.176" height="73.176" rx="15" ry="15"/><path class="fil7" d="M164 417c-3-1-4-5-2-7 2-3 5-3 8-1l7 4 16-16c2-2 5-3 7 0 2 2 2 5 0 7l-19 20c-2 2-5 3-7 1l-10-8z"/><path class="fil1 str0" d="M119 221h147m-26-42h103m-125 0h11m-29 0h12"/><circle class="fil1 str0" cx="180" cy="179" r="9"/><path class="fil1 str0" d="M283 79v16m8-8h-16m82-84v16m8-8h-16M152 91h96m312-44h103m-142 0h11m6 0h12m8 59v16m8-8h-16m109 43v16m8-8h-16m99 89v16m8-8h-16m-52 0H587m143 0h-12m-6 0h-11m-598 27v-29l-22 15zm649 106v-29l-22 15zm-118-57v-29l21 15zm98 181v16m8-8h-16m-137-1h90"/><circle class="fil8" cx="652" cy="446" r="38"/><circle class="fil3 str0" cx="652" cy="446" r="13"/></g></g></svg>