<svg xmlns="http://www.w3.org/2000/svg" width="236.16" height="208.271" viewBox="0 0 980 864" shape-rendering="geometricPrecision" text-rendering="geometricPrecision" image-rendering="optimizeQuality" fill-rule="evenodd" clip-rule="evenodd"><defs><style>.str0,.str1,.str2{stroke:#5b5b5b;stroke-width:6.27148;stroke-linecap:round;stroke-linejoin:round}.str2{stroke-dasharray:6.271482 18.814447}.str1{stroke-dasharray:6.271482 31.357411}.fil2{fill:none}.fil17{fill:#fefefe}.fil5{fill:#3cc8d7}.fil8{fill:#3fcbd8}.fil1{fill:#515254}.fil0{fill:#a5a6aa}.fil11{fill:#e45f32}.fil6{fill:#e85e39}.fil10{fill:#ec7d5f}.fil13{fill:#ed5732}.fil12{fill:#ed7d58}.fil15{fill:#ee9e87}.fil16{fill:#f35532}.fil9{fill:#f39886}.fil14{fill:#f5bdb0}.fil3{fill:#faa52e}.fil7{fill:#faa538}.fil4{fill:#fefefe;fill-rule:nonzero}</style></defs><g id="Слой_x0020_1"><g id="_2662846256928"><path class="fil0" d="M138 364h709v437H138z"/><path class="fil1 str0" d="M181 408h624v393H181z"/><path class="fil2 str0" d="M30 471v23m12-11H18"/><path class="fil3" d="M83 419v112h121l40 40v-41h22V419z"/><path class="fil4" d="M154 482l7 2c-1 4-3 7-5 9-3 2-6 3-10 3-5 0-8-2-11-5-3-4-5-8-5-14s2-10 5-13c3-4 7-5 12-5 4 0 8 1 10 3s3 4 4 7l-7 2c-1-2-1-4-3-5-1-1-3-1-5-1s-4 1-6 3-3 5-3 9 1 8 3 9c1 2 4 3 6 3s4 0 5-1l3-6z"/><path id="1" class="fil4" d="M175 490v-9h-9v-7h9v-9h6v9h10v7h-10v9z"/><path id="2" class="fil4" d="M204 490v-9h-9v-7h9v-9h6v9h10v7h-10v9z"/><path class="fil5" d="M541 327v106h113l40 39v-40h22V328z"/><path class="fil6" d="M475 253v119H346l-45 45v-46h-25V254z"/><path class="fil7" d="M963 438v137H815l-51 51v-52h-29V438z"/><path class="fil4" d="M309 333v-36h7v14h14v-14h7v36h-7v-16h-14v16z"/><path id="1" class="fil4" d="M353 333v-30h-11v-6h28v6h-10v30z"/><path id="2" class="fil4" d="M375 333v-36h11l6 25 6-25h11v36h-6v-28l-7 28h-7l-7-28v28z"/><path id="3" class="fil4" d="M417 333v-35h7v29h18v6z"/><path class="fil4" d="M580 396v-36h12c4 0 7 1 8 1l6 3c1 2 2 5 2 7 0 3-1 4-2 6 0 1-1 3-3 3-1 1-2 2-3 2-2 0-5 1-8 1h-4v13h-8zm8-30v11h3c3 0 5-1 6-1s2-1 2-2c1 0 1-1 1-2 0-2 0-3-1-4s-2-1-3-1-2-1-5-1h-3z"/><path id="1" class="fil4" d="M614 396v-36h7v15h14v-15h7v36h-7v-15h-14v15z"/><path id="2" class="fil4" d="M649 396v-36h12c4 0 7 1 9 1 2 1 3 2 5 3 1 2 2 5 2 7 0 3-1 4-1 6-1 1-2 3-3 3-2 1-3 2-4 2-2 0-4 1-8 1h-4v13h-8zm8-30v11h4c2 0 4-1 5-1s2-1 3-2v-2c0-2 0-3-1-4s-1-1-3-1c-1 0-2-1-5-1h-3z"/><path class="fil4" d="M824 510l7 2c-1 4-3 7-5 9-3 2-6 3-10 3s-8-2-11-5-5-8-5-13c0-6 2-11 5-14s7-5 12-5c4 0 8 1 10 4 2 1 3 4 4 7l-7 1c0-2-1-3-3-4-1-1-3-2-5-2s-4 1-6 3-2 5-2 9c0 5 0 8 2 10s4 3 6 3 4-1 5-2c2-1 3-3 3-6z"/><path id="1" class="fil4" d="M836 512l7-1c0 2 1 4 2 5s3 2 5 2c3 0 4-1 6-2 1-1 1-2 1-3v-2c-1-1-2-1-3-2-1 0-3 0-6-1-4-1-6-2-8-4s-3-4-3-7c0-2 0-3 1-5s3-3 5-4 4-1 7-1c4 0 8 1 10 3s3 5 3 8h-7c0-2-1-3-2-4s-2-1-4-1-4 0-5 1-1 2-1 3c0 0 0 1 1 2 1 0 3 1 6 2 4 1 6 2 8 3s3 2 4 3c1 2 1 4 1 6s0 4-1 6-3 3-5 4-5 1-8 1c-4 0-8-1-10-3-3-2-4-5-4-9z"/><path id="2" class="fil4" d="M869 512l7-1c0 2 1 4 2 5 2 1 3 2 5 2 3 0 5-1 6-2s1-2 1-3v-2c-1-1-2-1-3-2-1 0-3 0-6-1s-6-2-8-4-3-4-3-7c0-2 1-3 2-5s2-3 4-4 4-1 7-1c4 0 8 1 10 3s4 5 4 8h-8c0-2-1-3-2-4s-2-1-4-1-4 0-5 1-1 2-1 3c0 0 0 1 1 2 1 0 3 1 7 2 3 1 6 2 7 3 2 1 3 2 4 3 1 2 2 4 2 6s-1 4-2 6-3 3-5 4-4 1-8 1-8-1-10-3-4-5-4-9z"/><circle class="fil2 str1" cx="57" cy="658" r="54"/><path class="fil2 str0" d="M57 647v23m12-12H45"/><circle class="fil2 str0" cx="43" cy="551" r="10"/><path class="fil2 str0" d="M136 407H31m-19 0H4m119-41H6m39-46v23m12-12H33"/><circle class="fil8" cx="167" cy="238" r="73"/><path class="fil2 str0" d="M165 117v36m80-8l-23 28M90 144l22 28m-65 46l36 7m-21 74l31-18m34 71l12-33m-9-180l7 19m67-19l-7 19m62 28l-18 10M76 185l17 10m-30 65l20-4m17 64l13-16"/><path class="fil4" d="M129 242c-3-3-3-8 0-11s8-3 11 0l16 17 35-35c3-3 8-3 11 0s3 8 0 11c-13 14-27 28-40 41-3 3-8 3-11 0l-22-23z"/><circle class="fil2 str0" cx="559" cy="164" r="16"/><circle class="fil2 str0" cx="559" cy="164" r="43"/><circle class="fil2 str2" cx="559" cy="164" r="93"/><circle class="fil2 str0" cx="414" cy="154" r="11"/><path class="fil2 str0" d="M340 224v-30l-23 15zM204 78h157m15 0h9m11 0h10m20 0h20m-10 10V68m295-1V38l-23 15zm-97-30V3l26 18zm282 377v-35l26 18zm41-219h20m-10 10v-20"/><circle class="fil2 str2" cx="912" cy="308" r="52"/><path class="fil2 str0" d="M912 297v22m11-11h-22"/><path class="fil9" d="M770 334l-94-107h188z"/><path class="fil10" d="M770 334l-46-107h48z"/><path class="fil11" d="M770 334l2-107h48z"/><path class="fil12" d="M676 227l26-39h140l22 39z"/><path class="fil13" d="M676 227l26-39 22 39z"/><path class="fil14" d="M772 227l-25-39-23 39z"/><path class="fil15" d="M772 227l26-39 22 39z"/><path class="fil16" d="M865 227l-23-39-22 39z"/><path class="fil2 str0" d="M771 140v14m57 2l-8 12m54 28l-13 6m-7-34l-10 10m-41-38l-3 13m-84 3l7 12m-53 28l12 6m7-34l10 10m42-38l3 13"/><path class="fil17 str0" d="M78 801h830l-24 60H107z"/><path class="fil2 str0" d="M443 829h100"/><path class="fil17" d="M209 760h16.781v14.885H209zm0-32h16.781v14.885H209zm0-33h16.781v14.885H209zm0-32h16.781v14.885H209zm0-32h16.781v14.885H209zm0-32h16.781v14.885H209zm0-32h16.781v14.885H209z"/><path class="fil6" d="M286 691h50v10h-50v-10zm-17-230h52v9h-52v-9zm33 50h85v10h-85v-10zm151 93h49v10h-49v-10z"/><path class="fil5" d="M385 576h90v10h-90v-10zm-27 84h34v9h-34v-9z"/><path class="fil17" d="M359 488h48v10h-48v-10zm176 232h101v10H535v-10zm-112 0h101v10H423v-10zm-74-29h120v10H349v-10zm53-31h155v9H402v-9zm-148 0h93v9h-93v-9zm87-23h140v10H341v-10zm227 23h144v9H568v-9zm-54-56h104v10H514v-10zm-228 0h160v10H286v-10zm-30-28h119v10H256v-10zm81-32h109v9H337v-9zm121 0h222v9H458v-9zm233 0h43v9h-43v-9zm-265-56h308v10H426v-10zm-89-27h252v9H337v-9z"/><path class="fil3" d="M286 488h48v10h-48v-10zm24 232h100v10H310v-10zm-11-83h32v10h-32v-10z"/></g></g></svg>