<svg xmlns="http://www.w3.org/2000/svg" width="246.177" height="221.601" viewBox="0 0 1904 1714" shape-rendering="geometricPrecision" text-rendering="geometricPrecision" image-rendering="optimizeQuality" fill-rule="evenodd" clip-rule="evenodd"><defs><style>.str0,.str1{stroke-width:11.6944;stroke-linecap:round;stroke-linejoin:round}.str2{stroke:#fefefe}.str2,.str3{stroke-width:11.6944;stroke-linecap:round;stroke-linejoin:round}.str0,.str1,.str3{stroke:#5b5b5b}.str1{stroke-dasharray:11.694414 35.083241}.str3{stroke-dasharray:11.694414 58.472068}.fil3{fill:none}.fil8{fill:#fefefe}.fil10{fill:#d9dada}.fil14{fill:#5b5b5b}.fil11{fill:#40cad5}.fil16{fill:#48cdd6}.fil1{fill:#929397}.fil7{fill:#d8d9db}.fil0{fill:#dcdddf}.fil15{fill:#e65e38}.fil12{fill:#e85c38}.fil9{fill:#f2f3f5}.fil5{fill:#f5a630}.fil4{fill:#f9d07e}.fil13{fill:#fda635}.fil2{fill:#fff}.fil6{fill:#5b5b5b;fill-rule:nonzero}</style></defs><g id="Слой_x0020_1"><g id="_2662849381392"><path class="fil0" d="M733 1512h362.854v84.84H733z"/><path class="fil1 str0" d="M299 634h1227v698H299z"/><path class="fil2" d="M355 690h1116v584H355z"/><path class="fil2 str0" d="M299 1331h1227v181H299z"/><path class="fil3 str0" d="M373 1708h1031m-671-196v196m371-196v196"/></g><g id="_2662849383056"><path class="fil4" d="M390 1134h1044.83v64.702H390z"/><path class="fil5" d="M390 1199h1044.83v78.051H390z"/><path class="fil6" d="M501 1136v-2h12v26h-12v-24zm-83 3v-5h12v55h-12v-50zm42-3v-2h12v26h-12v-24zm866 0v-2h-12v26h12v-24zm83 3v-5h-12v55h12v-50zm-42-3v-2h-12v26h12v-24z"/></g><path class="fil7 str0" d="M518 360h788.847v80.645H518z"/><path class="fil8" d="M580 395h19.828v19.828H580zm40 0h19.828v19.828H620zm31 0h19.828v19.828H651zm80 0h474.553v19.828H731z"/><path class="fil8 str0" d="M518 441h789v834H518z"/><path class="fil9" d="M666 1140h494v119H666z"/><path class="fil10" d="M757 943h306.429v13.405H757z"/><path class="fil11" d="M657 522h501v192H657z"/><path class="fil5" d="M657 724h246v162H657z"/><path class="fil12" d="M912 724h246v162H912z"/><g id="_2662849387504"><path class="fil8 str0" d="M843 430h137c15 34 10 68-11 104H859c-21-33-26-67-16-104z"/><path class="fil3 str0" d="M838 460h150m-148 22h148m-144 22h139"/><path class="fil8 str0" d="M890 534v32c16 15 32 15 49 0v-32h-49z"/><path class="fil13 str0" d="M913 125c77 0 139 62 139 139 0 52-29 97-72 121v45H847v-45c-43-24-72-69-72-121 0-77 62-139 138-139z"/><path class="fil14" d="M944 162l-90 130h68l-39 83 90-113h-71z"/><path class="fil3 str0" d="M918 84v25m88-1l-11 22m80 42l-20 14m39 79l-25 2m0 89l-22-12m-33 74l-15-19M970 63c-1 4-12 49-12 49m108 4c-3 3-34 38-34 38m84 54c-4 2-48 18-48 18m50 89c-4-1-50-10-50-10m-6 107c-4-3-39-34-39-34M820 108l11 22m-81 42l21 14m-39 79l24 2m1 89l21-12m34 74l14-19m29-336c1 4 12 49 12 49m-108 4c3 3 34 38 34 38m-83 54c4 2 48 18 48 18m-51 89l50-10m7 107c3-3 38-34 38-34"/></g><g id="_2662849395408"><path class="fil3 str0" d="M737 6v44m22-22h-44M226 1174v43m22-21h-44M585 78v76l54-38z"/><circle class="fil3 str0" cx="494" cy="261" r="22"/><path class="fil3 str0" d="M251 271v43m22-22h-43M127 170h280m25 0h26m20 0h26M6 472v54l38-27zm85-21v39l-28-20zm98 421v50l-35-25z"/><circle class="fil3 str0" cx="60" cy="728" r="25"/><circle class="fil3 str0" cx="147" cy="728" r="25"/><circle class="fil3 str0" cx="230" cy="728" r="25"/><circle class="fil3 str0" cx="61" cy="1192" r="18"/><path class="fil3 str0" d="M45 1050h151"/><path class="fil15" d="M148 377h340v238h-53v88l-88-88H148z"/><path class="fil3 str1" d="M117 999h179"/><path class="fil3 str2" d="M266 462l-32 32 31 32m110-64l33 32-32 32m-32-85l-54 104"/></g><g id="_2662849403568"><path class="fil3 str0" d="M1145 115h259m29 0h32m-16 16V98m-64 180h33m-16 17v-33"/><circle class="fil3 str0" cx="1230" cy="249" r="17"/><path class="fil3 str0" d="M1536 258v75l48-40zm102-28v49l-32-26zm204 313h33m-17 17v-33"/><circle class="fil3 str0" cx="1773" cy="685" r="17"/><path class="fil3 str0" d="M1559 781h241m23 0h27m22 0h26"/><circle class="fil3 str1" cx="1685" cy="977" r="100"/><path class="fil3 str0" d="M1559 843h137m-28 134h33m-16 16v-33m-47 235h32m-16 17v-33m90 79h33m-17 16v-33"/><circle class="fil3 str0" cx="1771" cy="1146" r="17"/><circle class="fil16" cx="1529" cy="575" r="165"/><circle class="fil3 str3" cx="1529" cy="575" r="89"/><circle class="fil8 str0" cx="1529" cy="575" r="47"/></g></g></svg>