<svg xmlns="http://www.w3.org/2000/svg" width="220.624" height="212.728" viewBox="0 0 1264 1219" shape-rendering="geometricPrecision" text-rendering="geometricPrecision" image-rendering="optimizeQuality" fill-rule="evenodd" clip-rule="evenodd"><defs><style>.str0,.str1{stroke:#5b5b5b;stroke-width:8.66076;stroke-linecap:round;stroke-linejoin:round}.str1{stroke-dasharray:8.660757 25.98227}.fil1{fill:none}.fil8{fill:#fefefe}.fil19{fill:#00a0e3}.fil17{fill:#37c7d2}.fil4{fill:#45c2d8}.fil2{fill:#929397}.fil18{fill:#dbdce0}.fil0{fill:#dcdddf}.fil22{fill:#e1582e}.fil21{fill:#e45431}.fil9{fill:#e85e37}.fil5{fill:#ec5536}.fil10{fill:#ee8160}.fil7{fill:#f5a630}.fil11{fill:#f8a28b}.fil6{fill:#f9d07e}.fil16{fill:#fad68c}.fil20{fill:#fb9f30}.fil12{fill:#fec5b4}.fil13{fill:#ffeee7}.fil3{fill:#fff}.fil23{fill:#5b5b5b;fill-rule:nonzero}.fil14{fill:url(#id0)}.fil15{fill:url(#id1)}</style><linearGradient id="id0" gradientUnits="userSpaceOnUse" x1="938.044" y1="580.756" x2="928.024" y2="744.028"><stop offset="0" stop-color="#ef7f1a"/><stop offset="1" stop-color="#fefefe"/></linearGradient><linearGradient id="id1" gradientUnits="userSpaceOnUse" x1="998.133" y1="618.605" x2="932.359" y2="835.932"><stop offset="0" stop-color="#00a0e3"/><stop offset="1" stop-color="#fefefe"/></linearGradient></defs><g id="Слой_x0020_1"><g id="_2662849408080"><path class="fil0" d="M517 1069h268.726v62.832H517z"/><path class="fil1 str0" d="M1214 447h6m8 0h5"/><path class="fil2 str0" d="M196 418h909v517H196z"/><path class="fil3" d="M237 460h827v433H237z"/><path class="fil3 str0" d="M196 935h909v134H196z"/><path class="fil1 str0" d="M4 1214h1256m-743-145v145m275-145v145"/><circle class="fil1 str1" cx="368" cy="77" r="46"/><circle class="fil4" cx="280" cy="259" r="59"/><circle class="fil1 str0" cx="223" cy="279" r="51"/><path class="fil1 str0" d="M134 144v24m12-12h-24m65 4h61m32 0h151m-11 51l19-15v33zM672 20L653 4v33zM34 377h214m12 0h13m17 0h13m34-12v24m12-12h-24"/><path class="fil1 str0" d="M343 324h128c36-3 59-24 60-68V120c-2-51 84-53 78 0v22m84 4h112m-106 60c13-74 94-84 108 0m-3-128h158m-45 85h211m16 0h13m16 0h13m34-12v24m12-12h-23m-356 92l-19-16v33zm236 94v24m12-12h-24"/><path class="fil5" d="M902 289h87.983v87.983H902z"/><path class="fil1 str1" d="M932 233h109v109H932z"/><path class="fil1 str0" d="M1110 447h97m-41 110l19-15v33zm7 64v24m12-12h-24m-81-442v24m12-12h-24M152 446l-19-15v33zM31 508h146"/><path class="fil6" d="M320 787h679.203v47.918H320z"/><path class="fil7" d="M320 835h679.203v57.804H320z"/><path class="fil8 str0" d="M805 554h108v336H805z"/><path class="fil1 str0" d="M859 876c8 0 14 6 14 14h-28c0-8 6-14 14-14z"/><path class="fil9" d="M819 570h80v58h-80z"/><path class="fil10" d="M819 628h80v59h-80z"/><path class="fil1 str0" d="M822 628h74"/><path class="fil11" d="M819 687h80v59h-80z"/><path class="fil1 str0" d="M822 687h74"/><path class="fil12" d="M819 747h80v58h-80z"/><path class="fil13" d="M819 806h80v58h-80z"/><path class="fil1 str0" d="M822 745h74m-74 58h74"/><path class="fil8 str0" d="M913 565l59 14-59 303z"/><path class="fil14" d="M916 802V576l44 10z"/><path class="fil1 str0" d="M943 640l-30-6m19 66l-19-5m14 56h-14"/><path class="fil8 str0" d="M971 586l57 15-107 289h-8v-26z"/><path class="fil15" d="M972 598l42 10-101 280z"/><path class="fil1 str0" d="M954 760l-16-7m34-46l-24-5m40-45l-30-6"/><path class="fil16" d="M692 441c-7-24-14-49-21-73-14-57 19-83 49-128 32 45 70 74 48 132l-18 69h-58z"/><path class="fil17 str0" d="M668 441h114v449H668z"/><circle class="fil8 str0" cx="722" cy="347" r="22"/><path class="fil1 str0" d="M720 324v-80"/><path class="fil18" d="M400 523h-96c-30 0-32 0-2-15 24-11 125-48 124-11v12c-1 19-3 14-26 14zm0 58h-96c-30 0-32 0-2 15 24 11 125 48 124 11v-13c-1-18-3-13-26-13z"/><path class="fil19" d="M754 446h23.772v440.43H754z"/><circle class="fil1 str1" cx="323" cy="550" r="45"/><circle class="fil20" cx="323" cy="550" r="26"/><path class="fil21 str0" d="M574 237h68.383v653.848H574z"/><path class="fil18" d="M537 494h60c18 0 20 0 1 9-15 7-78 30-77 7v-8c0-12 1-8 16-8zm0 117h60c18 0 20 0 1-9-15-7-78-30-77-7v8c0 11 1 8 16 8z"/><path class="fil1 str0" d="M472 520h45m-45 33h45m-45 36h45"/><path class="fil8 str0" d="M574 238l36-93 33 93z"/><path class="fil22 str0" d="M420 634h110v146H420z"/><path class="fil8" d="M431 783h83.76v107.924H431z"/><path class="fil1 str0" d="M473 801h39m-39 33h39m-39 36h39"/><path class="fil23" d="M334 791v-4h9v41h-9zm31-2v-2h9v20h-9zm31 0v-2h9v20h-9zm145 0v-2h9v20h-9zm435 2v-4h9v41h-9z"/></g></g></svg>