<svg xmlns="http://www.w3.org/2000/svg" width="229.213" height="203.255" viewBox="0 0 1377 1221" shape-rendering="geometricPrecision" text-rendering="geometricPrecision" image-rendering="optimizeQuality" fill-rule="evenodd" clip-rule="evenodd"><defs><style>.str0,.str1{stroke:#5b5b5b;stroke-width:9.08286;stroke-linecap:round;stroke-linejoin:round}.str1{stroke-dasharray:9.082856 27.248567}.fil4{fill:none}.fil1{fill:#fefefe}.fil20{fill:#3792a7}.fil7{fill:#3fc7d3}.fil21{fill:#41c3d3}.fil23{fill:#65686d}.fil9{fill:#6a6b70}.fil0{fill:#97989c}.fil2{fill:#b8b8ba}.fil18{fill:#dadbdd}.fil3{fill:#dcdddf}.fil10{fill:#e65c37}.fil11{fill:#e85e37}.fil12{fill:#ee8160}.fil5{fill:#f14422}.fil6{fill:#f5f0f4}.fil22{fill:#f7a630}.fil19{fill:#f85417}.fil13{fill:#f8a28b}.fil14{fill:#fec5b4}.fil15{fill:#ffeee7}.fil8{fill:#5b5b5b;fill-rule:nonzero}.fil16{fill:url(#id0)}.fil17{fill:url(#id1)}</style><linearGradient id="id0" gradientUnits="userSpaceOnUse" x1="1203.14" y1="784.675" x2="1190.67" y2="987.781"><stop offset="0" stop-color="#ef7f1a"/><stop offset="1" stop-color="#fefefe"/></linearGradient><linearGradient id="id1" gradientUnits="userSpaceOnUse" x1="1277.89" y1="831.756" x2="1196.06" y2="1102.11"><stop offset="0" stop-color="#00a0e3"/><stop offset="1" stop-color="#fefefe"/></linearGradient></defs><g id="Слой_x0020_1"><g id="_2102250225104"><path class="fil0" d="M303 326h1009v571H303z"/><path class="fil1" d="M352 380h914v487H352z"/><path class="fil2" d="M807 543c-10 21-12 40-5 44 7 3 21-11 30-31 10-21 13-40 5-44-7-3-20 11-30 31zm29 164c-6-22-17-38-25-35-7 2-9 21-2 43 6 22 17 38 25 36 8-3 9-22 2-44zm41-56c-20-10-39-13-43-7-4 7 9 22 29 33 20 10 39 14 43 7s-9-22-29-33zm-13-70c-22 7-37 19-34 27 2 7 22 7 43 0 22-8 37-20 34-27-2-8-22-8-43 0z"/><path class="fil3" d="M788 473c21 19 24 56 24 95 99-85 121-55 35 38 123 1 125 48 1 50 85 91 55 122-36 31 1 40-13 75-29 102-1-106 6-211 5-316z"/><path class="fil4 str0" d="M401 17h118M400 155H176m241 0h14m17 0h15M147 543h31m-16 15v-31M604 70v67l44-34zm140-13V20l-26 17zm80 13h118m-51 42h197m-37-92h31m-15 15V5m42 107h31m-16 16V97m141-18h31m-16 16V64m0 168v47l32-24zm-479-9h31m-16 16v-31"/><circle class="fil4 str0" cx="816" cy="223" r="78"/><path class="fil4 str1" d="M990 218h185v160H990z"/><path class="fil5" d="M976 203h30.359v30.359H976zm184 0h30.359v30.359H1160zm0 159h30.359v30.359H1160zm-185 0h30.359v30.359H975z"/><path class="fil4 str0" d="M1342 440h31m-16 16v-31M189 471H18m188 0h14m17 0h15m-125-65v-37l-26 17z"/><circle class="fil4 str0" cx="163" cy="291" r="16"/><path class="fil4 str0" d="M262 543h15m17 0h14m-80 0h14m-47 0h15m-48 0h15m-69 0h31m-16 15v-31"/><path class="fil6" d="M233 217h384v224H233z"/><path class="fil7" d="M264 251h322v167H264z"/><path class="fil8" d="M581 403h5v9H264v-9z"/><path class="fil1 str0" d="M278 408l72-91 29 34-47 57z"/><path class="fil1 str0" d="M329 408l100-118 93 118z"/><path class="fil1" d="M484 322c5 1 67 0 67 0l-35-31-32 31z"/><path class="fil4 str0" d="M606 913h704v139H606z"/><path class="fil9" d="M193 814h446v400H193z"/><path class="fil1" d="M340 298c5 1 66 0 66 0l-34-24-32 24z"/><path class="fil10" d="M216 839h396v349H216z"/><path class="fil1" d="M274 331c4 1 50 0 50 0l-26-17-24 17z"/><path class="fil4 str0" d="M304 636H88c-31 0-33 69 0 68h269c39 0 35 65 0 67H5v253h76"/><path class="fil9" d="M83 814h102v400H83z"/><path class="fil4 str0" d="M134 904v-43m0 305v-43m0-22v-43m0-89v-43m0 60c14 0 27 12 27 27s-13 27-27 27c-15 0-27-12-27-27s12-27 27-27z"/><path class="fil1 str0" d="M1038 751h134v466h-134z"/><circle class="fil4 str0" cx="1105" cy="1169" r="17"/><path class="fil11" d="M1055 771h98.667v72.965H1055z"/><path class="fil12" d="M1055 843h98.667v72.965H1055z"/><path class="fil4 str0" d="M1059 844h91"/><path class="fil13" d="M1055 917h98.667v72.965H1055z"/><path class="fil4 str0" d="M1059 917h91"/><path class="fil14" d="M1055 991h98.667v72.965H1055z"/><path class="fil15" d="M1055 1064h98.667v72.965H1055z"/><path class="fil4 str0" d="M1059 989h91m-91 72h91"/><path class="fil1 str0" d="M1172 765l74 18-74 376z"/><path class="fil16" d="M1176 1060V779l54 12z"/><path class="fil4 str0" d="M1209 858l-37-8m24 83l-24-6m17 70h-17"/><path class="fil1 str0" d="M1244 792l71 18-143 387v-60z"/><path class="fil17" d="M1245 806l53 12-126 349z"/><path class="fil4 str0" d="M1223 1007l-20-8m42-57l-29-6m49-56l-37-8"/><path class="fil18" d="M664 1069h288.462v50.689H664z"/><path class="fil4 str0" d="M1027 1212H834m133 0v-159m-315 120v-120m136-651v58m228 170h-58M788 801v57M617 630h-57"/><path class="fil19" d="M892 737l-16-77 69 44-26 6 21 25-7 9-23-26z"/><path class="fil4 str0" d="M861 640l-20-19m41 15v-28m13 34l14-24m-4 43l26-7m-82 4h-27m32 21l-20 20m37-8v28"/><path class="fil20" d="M739 707c6-22 18-38 25-35 8 2 9 21 3 43-7 22-18 38-26 36-7-3-8-22-2-44zm30-164c10 21 12 40 5 44-7 3-21-11-31-31-10-21-12-40-5-44 7-3 21 11 31 31zm-57 38c21 7 36 19 34 27-3 7-22 7-44 0-21-8-37-20-34-27 3-8 22-8 44 0zm-13 70c20-10 39-13 43-7 3 7-10 22-30 33-20 10-39 14-43 7s10-22 30-33z"/><path class="fil21" d="M787 473c-20 19-23 56-23 95-100-85-121-55-36 38-123 1-124 48-1 50-85 91-54 122 37 31-2 40 3 75 19 102 2-106 3-211 4-316z"/><circle class="fil22 str0" cx="786" cy="631" r="44"/><path class="fil23 str0" d="M394 1194l33-21h424v38H423l-29-17z"/><path class="fil8" d="M1054 281h-4c1-6 1-12 2-20 15 1 26 1 32 1 5 0 15 0 29-1 1 8 1 14 2 20h-4c-2-6-3-10-3-11-1-1-1-2-2-2-1-1-3-1-7-1h-11c-1 9-1 20-1 34 0 12 0 21 1 25v2c1 1 4 1 9 2 0 0 1 1 2 1v3c-7-1-13-1-18-1s-10 0-15 1v-3c1-1 2-1 2-1 5-1 8-1 8-2 1 0 1 0 1-1v-11c1-11 1-19 1-25 0-9 0-17-1-24h-14c-2 0-3 0-4 1-1 0-2 2-2 3-1 2-2 5-3 10z"/></g></g></svg>