<?xml version="1.0" encoding="utf-8"?>
<!-- Generator: Adobe Illustrator 17.0.0, SVG Export Plug-In . SVG Version: 6.00 Build 0)  -->
<!DOCTYPE svg PUBLIC "-//W3C//DTD SVG 1.1//EN" "http://www.w3.org/Graphics/SVG/1.1/DTD/svg11.dtd">
<svg version="1.1" id="Layer_1" xmlns="http://www.w3.org/2000/svg" xmlns:xlink="http://www.w3.org/1999/xlink" x="0px" y="0px"
	 width="23px" height="34px" viewBox="0 0 23 34" enable-background="new 0 0 23 34" xml:space="preserve">
<g>
	<defs>
		<rect id="SVGID_1_" x="-65" y="-34" width="1440" height="398"/>
	</defs>
	<clipPath id="SVGID_2_">
		<use xlink:href="#SVGID_1_"  overflow="visible"/>
	</clipPath>
	<g clip-path="url(#SVGID_2_)">
		<defs>
			<path id="SVGID_3_" d="M0.18,22.9c0,2.898,1.126,5.623,3.176,7.684c2.071,2.082,4.833,3.229,7.775,3.229
				c2.943,0,5.703-1.146,7.775-3.228c2.066-2.076,3.191-4.823,3.176-7.752c0-0.001,0-0.003,0-0.004c0-0.003,0-0.006,0-0.01
				c0-0.003,0-0.007,0-0.01c0-0.001,0-0.003,0-0.004c0.012-2.926-1.109-5.675-3.176-7.752c-2.072-2.082-4.833-3.229-7.774-3.229
				c-0.676,0-1.224,0.546-1.224,1.22s0.548,1.22,1.224,1.22c2.284,0,4.428,0.89,6.036,2.507c1.609,1.616,2.475,3.77,2.466,6.037
				c0,0.001,0,0.003,0,0.005c0,0.001,0,0.003,0,0.005c0,0.027,0,0.054,0,0.081c0,2.25-0.874,4.367-2.466,5.966
				c-1.608,1.616-3.752,2.506-6.036,2.506c-2.284,0-4.428-0.89-6.037-2.507c-1.592-1.599-2.466-3.715-2.466-5.966
				c0-0.024-0.03-11.081-0.02-11.858c0.019-1.419,0.397-2.814,1.119-4.074c0.012-0.021,0.023-0.04,0.035-0.061
				c0.001-0.001,0.001-0.003,0.002-0.004C3.766,6.901,3.767,6.9,3.768,6.899C3.77,6.896,3.772,6.893,3.773,6.89
				c1.105-1.994,2.938-3.396,5.133-3.987c2.195-0.59,4.494-0.282,6.472,0.869c1.978,1.15,3.393,3,3.983,5.209
				c0.538,2.015,0.321,4.105-0.581,5.944c0.592,0.677,1.21,1.463,1.642,2.021c0.071-0.071,0.135-0.153,0.188-0.244
				c1.479-2.54,1.87-5.487,1.11-8.333c-0.761-2.846-2.582-5.229-5.13-6.71c-2.548-1.481-5.508-1.879-8.336-1.119
				C5.456,1.291,3.128,3.085,1.689,5.596c-0.013,0.023-0.027,0.046-0.04,0.07c-0.013,0.023-0.027,0.046-0.04,0.069
				c-0.711,1.24-1.163,2.582-1.348,3.962C0.261,11.111,0.18,22.87,0.18,22.9"/>
		</defs>
		<clipPath id="SVGID_4_">
			<use xlink:href="#SVGID_3_"  overflow="visible"/>
		</clipPath>
		<rect x="-4.82" y="-4.837" clip-path="url(#SVGID_4_)" fill="#333743" width="31.919" height="43.65"/>
	</g>
</g>
</svg>
