<?xml version="1.0" encoding="UTF-8"?>
<!DOCTYPE svg PUBLIC "-//W3C//DTD SVG 1.1//EN" "http://www.w3.org/Graphics/SVG/1.1/DTD/svg11.dtd">
<!-- Creator: CorelDRAW X8 -->
<svg xmlns="http://www.w3.org/2000/svg" xml:space="preserve" width="58.3735mm" height="56.2842mm" version="1.1" style="shape-rendering:geometricPrecision; text-rendering:geometricPrecision; image-rendering:optimizeQuality; fill-rule:evenodd; clip-rule:evenodd"
viewBox="0 0 1264 1219"
 xmlns:xlink="http://www.w3.org/1999/xlink">
 <defs>
  <style type="text/css">
   <![CDATA[
    .str0 {stroke:#5B5B5B;stroke-width:8.66076;stroke-linecap:round;stroke-linejoin:round}
    .str1 {stroke:#5B5B5B;stroke-width:8.66076;stroke-linecap:round;stroke-linejoin:round;stroke-dasharray:8.660757 25.982270}
    .fil1 {fill:none}
    .fil8 {fill:#FEFEFE}
    .fil19 {fill:#00A0E3}
    .fil17 {fill:#37C7D2}
    .fil4 {fill:#45C2D8}
    .fil2 {fill:#929397}
    .fil18 {fill:#DBDCE0}
    .fil0 {fill:#DCDDDF}
    .fil22 {fill:#E1582E}
    .fil21 {fill:#E45431}
    .fil9 {fill:#E85E37}
    .fil5 {fill:#EC5536}
    .fil10 {fill:#EE8160}
    .fil7 {fill:#F5A630}
    .fil11 {fill:#F8A28B}
    .fil6 {fill:#F9D07E}
    .fil16 {fill:#FAD68C}
    .fil20 {fill:#FB9F30}
    .fil12 {fill:#FEC5B4}
    .fil13 {fill:#FFEEE7}
    .fil3 {fill:white}
    .fil23 {fill:#5B5B5B;fill-rule:nonzero}
    .fil14 {fill:url(#id0)}
    .fil15 {fill:url(#id1)}
   ]]>
  </style>
  <linearGradient id="id0" gradientUnits="userSpaceOnUse" x1="938.044" y1="580.756" x2="928.024" y2="744.028">
   <stop offset="0" style="stop-opacity:1; stop-color:#EF7F1A"/>
   <stop offset="1" style="stop-opacity:1; stop-color:#FEFEFE"/>
  </linearGradient>
  <linearGradient id="id1" gradientUnits="userSpaceOnUse" x1="998.133" y1="618.605" x2="932.359" y2="835.932">
   <stop offset="0" style="stop-opacity:1; stop-color:#00A0E3"/>
   <stop offset="1" style="stop-opacity:1; stop-color:#FEFEFE"/>
  </linearGradient>
 </defs>
 <g id="Слой_x0020_1">
  <metadata id="CorelCorpID_0Corel-Layer"/>
  <g id="_2662849408080">
   <g>
    <rect class="fil0" x="517" y="1069" width="268.726" height="62.8316"/>
    <line class="fil1 str0" x1="1214" y1="447" x2="1220" y2= "447" />
    <line class="fil1 str0" x1="1228" y1="447" x2="1233" y2= "447" />
    <rect class="fil2 str0" x="196" y="418" width="909" height="517"/>
    <rect class="fil3" x="237" y="460" width="827" height="433"/>
    <rect class="fil3 str0" x="196" y="935" width="909" height="134"/>
    <line class="fil1 str0" x1="4" y1="1214" x2="1260" y2= "1214" />
    <line class="fil1 str0" x1="517" y1="1069" x2="517" y2= "1214" />
    <line class="fil1 str0" x1="792" y1="1069" x2="792" y2= "1214" />
   </g>
   <circle class="fil1 str1" cx="368" cy="77" r="46"/>
   <circle class="fil4" cx="280" cy="259" r="59"/>
   <circle class="fil1 str0" cx="223" cy="279" r="51"/>
   <path class="fil1 str0" d="M134 144l0 24m12 -12l-24 0"/>
   <line class="fil1 str0" x1="187" y1="160" x2="248" y2= "160" />
   <line class="fil1 str0" x1="280" y1="160" x2="431" y2= "160" />
   <polygon class="fil1 str0" points="420,211 439,196 439,229 "/>
   <polygon class="fil1 str0" points="672,20 653,4 653,37 "/>
   <line class="fil1 str0" x1="34" y1="377" x2="248" y2= "377" />
   <line class="fil1 str0" x1="260" y1="377" x2="273" y2= "377" />
   <line class="fil1 str0" x1="290" y1="377" x2="303" y2= "377" />
   <path class="fil1 str0" d="M337 365l0 24m12 -12l-24 0"/>
   <path class="fil1 str0" d="M343 324c43,0 85,0 128,0 36,-3 59,-24 60,-68 0,-45 0,-91 0,-136 -2,-51 84,-53 78,0 0,8 0,15 0,22"/>
   <line class="fil1 str0" x1="693" y1="146" x2="805" y2= "146" />
   <path class="fil1 str0" d="M699 206c13,-74 94,-84 108,0"/>
   <line class="fil1 str0" x1="804" y1="78" x2="962" y2= "78" />
   <line class="fil1 str0" x1="917" y1="163" x2="1128" y2= "163" />
   <line class="fil1 str0" x1="1144" y1="163" x2="1157" y2= "163" />
   <line class="fil1 str0" x1="1173" y1="163" x2="1186" y2= "163" />
   <path class="fil1 str0" d="M1220 151l0 24m12 -12l-23 0"/>
   <polygon class="fil1 str0" points="853,255 834,239 834,272 "/>
   <path class="fil1 str0" d="M1089 349l0 24m12 -12l-24 0"/>
   <rect class="fil5" x="902" y="289" width="87.9825" height="87.9825"/>
   <rect class="fil1 str1" x="932" y="233" width="109" height="109"/>
   <line class="fil1 str0" x1="1110" y1="447" x2="1207" y2= "447" />
   <polygon class="fil1 str0" points="1166,557 1185,542 1185,575 "/>
   <path class="fil1 str0" d="M1173 621l0 24m12 -12l-24 0"/>
   <path class="fil1 str0" d="M1080 191l0 24m12 -12l-24 0"/>
   <polygon class="fil1 str0" points="152,446 133,431 133,464 "/>
   <line class="fil1 str0" x1="31" y1="508" x2="177" y2= "508" />
   <rect class="fil6" x="320" y="787" width="679.203" height="47.9178"/>
   <rect class="fil7" x="320" y="835" width="679.203" height="57.8041"/>
   <polygon class="fil8 str0" points="805,554 913,554 913,890 805,890 "/>
   <path class="fil1 str0" d="M859 876c8,0 14,6 14,14 0,0 0,0 0,0l-28 0c0,0 0,0 0,0 0,-8 6,-14 14,-14z"/>
   <polygon class="fil9" points="819,570 899,570 899,628 819,628 "/>
   <polygon class="fil10" points="819,628 899,628 899,687 819,687 "/>
   <line class="fil1 str0" x1="822" y1="628" x2="896" y2= "628" />
   <polygon class="fil11" points="819,687 899,687 899,746 819,746 "/>
   <line class="fil1 str0" x1="822" y1="687" x2="896" y2= "687" />
   <polygon class="fil12" points="819,747 899,747 899,805 819,805 "/>
   <polygon class="fil13" points="819,806 899,806 899,864 819,864 "/>
   <line class="fil1 str0" x1="822" y1="745" x2="896" y2= "745" />
   <line class="fil1 str0" x1="822" y1="803" x2="896" y2= "803" />
   <polygon class="fil8 str0" points="913,565 972,579 913,882 "/>
   <polygon class="fil14" points="916,802 916,576 960,586 "/>
   <line class="fil1 str0" x1="943" y1="640" x2="913" y2= "634" />
   <line class="fil1 str0" x1="932" y1="700" x2="913" y2= "695" />
   <line class="fil1 str0" x1="927" y1="751" x2="913" y2= "751" />
   <polygon class="fil8 str0" points="971,586 1028,601 921,890 913,890 913,864 "/>
   <polygon class="fil15" points="972,598 1014,608 913,888 "/>
   <line class="fil1 str0" x1="954" y1="760" x2="938" y2= "753" />
   <line class="fil1 str0" x1="972" y1="707" x2="948" y2= "702" />
   <line class="fil1 str0" x1="988" y1="657" x2="958" y2= "651" />
   <path class="fil16" d="M692 441c-7,-24 -14,-49 -21,-73 -14,-57 19,-83 49,-128 32,45 70,74 48,132 -6,23 -12,46 -18,69 -19,0 -38,0 -58,0z"/>
   <rect class="fil17 str0" x="668" y="441" width="114" height="449"/>
   <circle class="fil8 str0" cx="722" cy="347" r="22"/>
   <line class="fil1 str0" x1="720" y1="324" x2="720" y2= "244" />
   <path class="fil18" d="M400 523c-32,0 -64,0 -96,0 -30,0 -32,0 -2,-15 24,-11 125,-48 124,-11 0,4 0,8 0,12 -1,19 -3,14 -26,14z"/>
   <path class="fil18" d="M400 581c-32,0 -64,0 -96,0 -30,0 -32,0 -2,15 24,11 125,48 124,11 0,-4 0,-9 0,-13 -1,-18 -3,-13 -26,-13z"/>
   <rect class="fil19" x="754" y="446" width="23.7716" height="440.43"/>
   <circle class="fil1 str1" cx="323" cy="550" r="45"/>
   <circle class="fil20" cx="323" cy="550" r="26"/>
   <rect class="fil21 str0" x="574" y="237" width="68.3832" height="653.848"/>
   <path class="fil18" d="M537 494c20,0 40,0 60,0 18,0 20,0 1,9 -15,7 -78,30 -77,7 0,-3 0,-6 0,-8 0,-12 1,-8 16,-8z"/>
   <path class="fil18" d="M537 611c20,0 40,0 60,0 18,0 20,0 1,-9 -15,-7 -78,-30 -77,-7 0,2 0,5 0,8 0,11 1,8 16,8z"/>
   <line class="fil1 str0" x1="472" y1="520" x2="517" y2= "520" />
   <line class="fil1 str0" x1="472" y1="553" x2="517" y2= "553" />
   <line class="fil1 str0" x1="472" y1="589" x2="517" y2= "589" />
   <polygon class="fil8 str0" points="574,238 610,145 643,238 "/>
   <rect class="fil22 str0" x="420" y="634" width="110" height="146"/>
   <rect class="fil8" x="431" y="783" width="83.7603" height="107.924"/>
   <line class="fil1 str0" x1="473" y1="801" x2="512" y2= "801" />
   <line class="fil1 str0" x1="473" y1="834" x2="512" y2= "834" />
   <line class="fil1 str0" x1="473" y1="870" x2="512" y2= "870" />
   <polygon class="fil23" points="334,791 334,787 343,787 343,828 334,828 "/>
   <polygon class="fil23" points="365,789 365,787 374,787 374,807 365,807 "/>
   <polygon class="fil23" points="396,789 396,787 405,787 405,807 396,807 "/>
   <polygon class="fil23" points="541,789 541,787 550,787 550,807 541,807 "/>
   <polygon class="fil23" points="976,791 976,787 985,787 985,828 976,828 "/>
  </g>
 </g>
</svg>
