<?xml version="1.0" encoding="UTF-8"?>
<!DOCTYPE svg PUBLIC "-//W3C//DTD SVG 1.1//EN" "http://www.w3.org/Graphics/SVG/1.1/DTD/svg11.dtd">
<!-- Creator: CorelDRAW X8 -->
<svg xmlns="http://www.w3.org/2000/svg" xml:space="preserve" width="54.8293mm" height="51.248mm" version="1.1" style="shape-rendering:geometricPrecision; text-rendering:geometricPrecision; image-rendering:optimizeQuality; fill-rule:evenodd; clip-rule:evenodd"
viewBox="0 0 1256 1174"
 xmlns:xlink="http://www.w3.org/1999/xlink">
 <defs>
  <style type="text/css">
   <![CDATA[
    .str0 {stroke:#5B5B5B;stroke-width:9.16653;stroke-linecap:round;stroke-linejoin:round}
    .str1 {stroke:#5B5B5B;stroke-width:9.16653;stroke-linecap:round;stroke-linejoin:round;stroke-dasharray:9.166534 27.499601}
    .fil2 {fill:none}
    .fil5 {fill:#FEFEFE}
    .fil8 {fill:#9D9E9E}
    .fil12 {fill:#38C6D2}
    .fil0 {fill:#3DC7D1}
    .fil4 {fill:#626368}
    .fil7 {fill:#AA4227}
    .fil10 {fill:#E25A34}
    .fil6 {fill:#E95635}
    .fil14 {fill:#F2B751}
    .fil9 {fill:#F3A22D}
    .fil13 {fill:#F45A24}
    .fil11 {fill:#F8AF46}
    .fil3 {fill:#F8B854}
    .fil1 {fill:#F99C23}
   ]]>
  </style>
 </defs>
 <g id="Слой_x0020_1">
  <metadata id="CorelCorpID_0Corel-Layer"/>
  <g id="_1639760004528">
   <circle class="fil0" cx="638" cy="350" r="245"/>
   <rect class="fil1" x="606" y="528" width="64.0741" height="127.016"/>
   <path class="fil2 str0" d="M788 230c40,0 81,0 122,0 9,104 -58,143 -136,173m-282 -173c-40,0 -81,0 -122,0 -9,104 58,143 136,173m8 52c-27,8 -48,4 -59,-25m311 25c27,8 48,4 59,-25"/>
   <path class="fil3" d="M487 210l3 0c100,0 200,0 299,0 -5,70 -11,141 -16,211 -14,164 -237,167 -267,0 -6,-70 -13,-141 -19,-211z"/>
   <line class="fil2 str0" x1="40" y1="1170" x2="1249" y2= "1170" />
   <rect class="fil4" x="522" y="651" width="234" height="120"/>
   <g>
    <path class="fil5 str0" d="M777 893c11,-31 26,-67 43,-93 14,-21 11,-16 10,-41 -1,-30 -1,-61 -2,-91 1,-23 -27,-17 -25,0 0,20 0,41 0,61 0,26 4,23 -14,41 -13,13 -26,25 -39,38 -5,0 -10,0 -16,0 12,-19 24,-37 36,-56 13,-17 -5,-31 -18,-19 -23,18 -41,38 -55,60 -11,16 -8,16 -8,34 0,20 0,40 0,60 0,19 88,6 88,6z"/>
    <g>
     <rect class="fil6" x="673" y="887" width="120" height="283"/>
     <rect class="fil7" x="673" y="887" width="50.1959" height="283.267"/>
    </g>
   </g>
   <g>
    <path class="fil5 str0" d="M509 893c-11,-31 -25,-67 -43,-93 -13,-21 -10,-16 -10,-41 1,-30 1,-61 2,-91 0,-23 27,-17 25,0 0,20 0,41 0,61 0,26 -4,23 14,41 13,13 26,25 39,38 5,0 11,0 16,0 -12,-19 -24,-37 -36,-56 -13,-17 5,-31 19,-19 23,18 40,38 54,60 11,16 9,16 9,34 0,20 0,40 0,60 0,19 -89,6 -89,6z"/>
    <g>
     <rect class="fil6" x="494" y="887" width="120" height="283"/>
     <rect class="fil7" x="563" y="887" width="50.1959" height="283.267"/>
    </g>
   </g>
   <rect class="fil5" x="578" y="668" width="120.194" height="64.9701"/>
   <rect class="fil8" x="607" y="692" width="62.3714" height="13.9698"/>
   <line class="fil2 str0" x1="597" y1="572" x2="680" y2= "572" />
   <line class="fil2 str0" x1="597" y1="590" x2="680" y2= "590" />
   <line class="fil2 str0" x1="597" y1="620" x2="680" y2= "620" />
   <line class="fil2 str0" x1="597" y1="638" x2="680" y2= "638" />
   <line class="fil2 str0" x1="638" y1="5" x2="638" y2= "45" />
   <line class="fil2 str0" x1="757" y1="26" x2="743" y2= "63" />
   <line class="fil2 str0" x1="860" y1="85" x2="834" y2= "116" />
   <line class="fil2 str0" x1="938" y1="178" x2="903" y2= "198" />
   <line class="fil2 str0" x1="979" y1="293" x2="939" y2= "300" />
   <line class="fil2 str0" x1="978" y1="413" x2="938" y2= "405" />
   <line class="fil2 str0" x1="936" y1="524" x2="902" y2= "504" />
   <line class="fil2 str0" x1="860" y1="615" x2="834" y2= "584" />
   <line class="fil2 str0" x1="638" y1="25" x2="638" y2= "45" />
   <line class="fil2 str0" x1="698" y1="30" x2="695" y2= "50" />
   <line class="fil2 str0" x1="802" y1="69" x2="792" y2= "86" />
   <line class="fil2 str0" x1="887" y1="141" x2="872" y2= "154" />
   <line class="fil2 str0" x1="945" y1="242" x2="926" y2= "249" />
   <line class="fil2 str0" x1="963" y1="353" x2="943" y2= "353" />
   <line class="fil2 str0" x1="943" y1="462" x2="925" y2= "455" />
   <line class="fil2 str0" x1="887" y1="559" x2="872" y2= "546" />
   <line class="fil2 str0" x1="797" y1="633" x2="788" y2= "616" />
   <line class="fil2 str0" x1="519" y1="26" x2="533" y2= "63" />
   <line class="fil2 str0" x1="416" y1="85" x2="442" y2= "116" />
   <line class="fil2 str0" x1="338" y1="178" x2="373" y2= "198" />
   <line class="fil2 str0" x1="297" y1="293" x2="337" y2= "300" />
   <line class="fil2 str0" x1="298" y1="413" x2="337" y2= "405" />
   <line class="fil2 str0" x1="339" y1="524" x2="374" y2= "504" />
   <line class="fil2 str0" x1="416" y1="615" x2="442" y2= "584" />
   <line class="fil2 str0" x1="577" y1="30" x2="581" y2= "50" />
   <line class="fil2 str0" x1="474" y1="69" x2="484" y2= "86" />
   <line class="fil2 str0" x1="388" y1="141" x2="404" y2= "154" />
   <line class="fil2 str0" x1="331" y1="242" x2="350" y2= "249" />
   <line class="fil2 str0" x1="312" y1="353" x2="332" y2= "353" />
   <line class="fil2 str0" x1="332" y1="462" x2="351" y2= "455" />
   <line class="fil2 str0" x1="389" y1="559" x2="404" y2= "546" />
   <line class="fil2 str0" x1="478" y1="633" x2="488" y2= "616" />
   <rect class="fil9" x="467" y="191" width="338.318" height="18.9243"/>
   <polygon class="fil10" points="525,191 588,191 588,348 556,334 525,348 "/>
   <line class="fil2 str0" x1="1252" y1="948" x2="1030" y2= "948" />
   <line class="fil2 str0" x1="1013" y1="948" x2="995" y2= "948" />
   <line class="fil2 str0" x1="982" y1="948" x2="964" y2= "948" />
   <path class="fil2 str0" d="M900 965l0 -31m-16 16l32 0"/>
   <path class="fil2 str0" d="M952 1080l0 -31m-16 16l31 0"/>
   <polygon class="fil2 str0" points="1108,1048 1108,1004 1082,1027 "/>
   <polygon class="fil2 str0" points="1167,674 1167,630 1193,653 "/>
   <path class="fil2 str0" d="M1160 783l0 -31m-16 15l31 0"/>
   <line class="fil2 str0" x1="1090" y1="767" x2="923" y2= "767" />
   <path class="fil2 str0" d="M988 652l0 -32m-16 16l31 0"/>
   <polygon class="fil11" points="1105,568 1004,568 1057,486 "/>
   <polygon class="fil2 str0" points="1136,539 1035,539 1088,457 "/>
   <polygon class="fil2 str0" points="414,1110 414,1065 388,1089 "/>
   <path class="fil2 str0" d="M385 883l0 -31m-16 15l32 0"/>
   <line class="fil2 str0" x1="130" y1="990" x2="352" y2= "990" />
   <line class="fil2 str0" x1="369" y1="990" x2="387" y2= "990" />
   <line class="fil2 str0" x1="400" y1="990" x2="418" y2= "990" />
   <polygon class="fil2 str0" points="194,1063 194,1019 220,1042 "/>
   <line class="fil2 str0" x1="97" y1="675" x2="319" y2= "675" />
   <line class="fil2 str0" x1="336" y1="675" x2="354" y2= "675" />
   <line class="fil2 str0" x1="367" y1="675" x2="386" y2= "675" />
   <path class="fil2 str0" d="M282 743l0 -31m-16 16l32 0"/>
   <line class="fil2 str0" x1="212" y1="728" x2="45" y2= "728" />
   <path class="fil2 str0" d="M234 939l0 -31m-16 15l31 0"/>
   <circle class="fil12" cx="1031" cy="845" r="60"/>
   <path class="fil2 str0" d="M1007 870l0 -27m-14 13l27 0"/>
   <circle class="fil2 str1" cx="1007" cy="858" r="60"/>
   <circle class="fil13" cx="160" cy="580" r="37"/>
   <circle class="fil2 str1" cx="180" cy="550" r="41"/>
   <rect class="fil14" x="55" y="769" width="141" height="141"/>
   <rect class="fil2 str1" x="5" y="795" width="141" height="141"/>
  </g>
 </g>
</svg>
