<?xml version="1.0" encoding="UTF-8"?>
<!DOCTYPE svg PUBLIC "-//W3C//DTD SVG 1.1//EN" "http://www.w3.org/Graphics/SVG/1.1/DTD/svg11.dtd">
<!-- Creator: CorelDRAW X8 -->
<svg xmlns="http://www.w3.org/2000/svg" xml:space="preserve" width="57.8505mm" height="55.0435mm" version="1.1" style="shape-rendering:geometricPrecision; text-rendering:geometricPrecision; image-rendering:optimizeQuality; fill-rule:evenodd; clip-rule:evenodd"
viewBox="0 0 847 806"
 xmlns:xlink="http://www.w3.org/1999/xlink">
 <defs>
  <style type="text/css">
   <![CDATA[
    .str0 {stroke:#5B5B5B;stroke-width:5.85382;stroke-linecap:round;stroke-linejoin:round}
    .fil1 {fill:none}
    .fil3 {fill:#FEFEFE}
    .fil4 {fill:#5B5B5B}
    .fil8 {fill:#30C1D2}
    .fil0 {fill:#3DC6D8}
    .fil5 {fill:#E35B35}
    .fil6 {fill:#EB5636}
    .fil2 {fill:#F5A42E}
    .fil7 {fill:#FEFEFE;fill-rule:nonzero}
   ]]>
  </style>
 </defs>
 <g id="Слой_x0020_1">
  <metadata id="CorelCorpID_0Corel-Layer"/>
  <g id="_1639755757216">
   <path class="fil0" d="M359 570l-63 0c0,-102 0,-207 0,-309 5,-24 15,-41 31,-59 17,17 28,36 32,61l0 307z"/>
   <path class="fil0" d="M567 570l-63 0c0,-102 0,-207 0,-309 5,-24 15,-41 32,-59 16,17 27,36 31,61l0 307z"/>
   <path class="fil1 str0" d="M3 803l841 0m-442 -257l0 35m62 -35l0 35m-44 -24l28 0m-28 11l28 0m-58 13l86 0m44 3l28 0m-28 11l28 0m-49 12l70 0m-257 -23l28 0m-28 11l28 0m-49 12l70 0m273 68c0,-12 6,-22 21,-27m68 81c37,5 62,24 69,66m-217 -94c6,-16 17,-27 35,-28 -21,-56 34,-71 58,-37 83,-6 106,34 90,102m-201 -45c18,2 25,11 21,28m82 -25c4,-9 12,-14 23,-12 13,-24 43,-21 51,4m-188 81c9,0 18,0 28,0 14,-42 77,-45 95,0m-268 -17c-34,-42 37,-70 48,-20 6,1 13,3 20,4 18,-45 79,-4 39,32m-155 9c3,-13 12,-21 27,-26m-349 43c-1,-24 10,-37 37,-38 -45,-22 -36,-107 32,-99 3,-20 19,-29 49,-28 -11,-66 101,-64 62,11 37,-15 96,18 69,65 16,-28 66,-26 63,28 7,-9 14,-17 22,-25m-247 -25c15,-21 33,-22 54,-5 13,2 21,8 25,17m-47 69c13,-32 60,-45 82,-4 16,-3 29,3 36,20 13,0 27,0 40,0m-286 -194c5,0 10,4 10,9 0,5 -5,10 -10,10 -5,0 -9,-5 -9,-10 0,-5 4,-9 9,-9zm542 53c8,0 15,7 15,15 0,8 -7,15 -15,15 -8,0 -15,-7 -15,-15 0,-8 7,-15 15,-15zm229 6c9,0 17,8 17,17 0,9 -8,17 -17,17 -9,0 -17,-8 -17,-17 0,-9 8,-17 17,-17zm-98 -72c14,0 25,11 25,24 0,14 -11,24 -25,24 -13,0 -24,-10 -24,-24 0,-13 11,-24 24,-24zm-627 29c13,0 24,11 24,24 0,13 -11,24 -24,24 -13,0 -24,-11 -24,-24 0,-13 11,-24 24,-24zm189 -14c9,0 16,7 16,16 0,9 -7,16 -16,16 -9,0 -16,-7 -16,-16 0,-9 7,-16 16,-16z"/>
   <path class="fil2" d="M503 479l-140 0c0,-123 0,-251 0,-374 12,-29 33,-51 71,-72 36,20 60,44 69,74l0 372z"/>
   <path class="fil3 str0" d="M481 546l-95 0c0,-102 0,-207 0,-308 8,-24 22,-42 47,-60 25,17 42,37 48,62l0 306z"/>
   <path class="fil4 str0" d="M402 207c8,-10 18,-19 31,-29 13,9 24,19 32,29l-63 0z"/>
   <path class="fil1 str0" d="M403 292c9,-36 52,-36 60,0"/>
   <path class="fil5 str0" d="M481 526c22,0 45,0 67,0 0,-21 0,-43 0,-64 0,-9 -4,-18 -12,-28 -18,-21 -37,-42 -55,-63 0,52 0,104 0,155z"/>
   <path class="fil5 str0" d="M385 526c-22,0 -45,0 -67,0 0,-21 0,-43 0,-64 0,-9 4,-18 12,-28 18,-21 37,-42 55,-63 0,52 0,104 0,155z"/>
   <circle class="fil1 str0" cx="173" cy="510" r="11"/>
   <circle class="fil1 str0" cx="96" cy="365" r="8"/>
   <line class="fil1 str0" x1="43" y1="466" x2="139" y2= "466" />
   <line class="fil1 str0" x1="152" y1="466" x2="178" y2= "466" />
   <path class="fil1 str0" d="M217 292l0 20m10 -10l-20 0"/>
   <path class="fil1 str0" d="M255 427l0 20m10 -10l-20 0"/>
   <rect class="fil6 str0" x="147" y="375" width="73.1756" height="73.1756" rx="15" ry="15"/>
   <path class="fil7" d="M164 417c-3,-1 -4,-5 -2,-7 2,-3 5,-3 8,-1l7 4 16 -16c2,-2 5,-3 7,0 2,2 2,5 0,7l-19 20c-2,2 -5,3 -7,1l-10 -8z"/>
   <line class="fil1 str0" x1="119" y1="221" x2="266" y2= "221" />
   <line class="fil1 str0" x1="240" y1="179" x2="343" y2= "179" />
   <line class="fil1 str0" x1="218" y1="179" x2="229" y2= "179" />
   <line class="fil1 str0" x1="200" y1="179" x2="212" y2= "179" />
   <circle class="fil1 str0" cx="180" cy="179" r="9"/>
   <path class="fil1 str0" d="M283 79l0 16m8 -8l-16 0"/>
   <path class="fil1 str0" d="M357 3l0 16m8 -8l-16 0"/>
   <line class="fil1 str0" x1="152" y1="91" x2="248" y2= "91" />
   <path class="fil1 str0" d="M560 47l103 0m-142 0l11 0m6 0l12 0"/>
   <path class="fil1 str0" d="M558 106l0 16m8 -8l-16 0"/>
   <path class="fil1 str0" d="M659 157l0 16m8 -8l-16 0"/>
   <path class="fil1 str0" d="M750 254l0 16m8 -8l-16 0"/>
   <path class="fil1 str0" d="M690 262l-103 0m143 0l-12 0m-6 0l-11 0"/>
   <polygon class="fil1 str0" points="103,289 103,260 81,275 "/>
   <polygon class="fil1 str0" points="752,395 752,366 730,381 "/>
   <polygon class="fil1 str0" points="634,338 634,309 655,324 "/>
   <path class="fil1 str0" d="M732 519l0 16m8 -8l-16 0"/>
   <line class="fil1 str0" x1="587" y1="526" x2="677" y2= "526" />
   <circle class="fil8" cx="652" cy="446" r="38"/>
   <circle class="fil3 str0" cx="652" cy="446" r="13"/>
  </g>
 </g>
</svg>
